M48
; DRILL file {KiCad (5.1.2)-2} date 6/28/2021 7:19:29 PM
; FORMAT={-:-/ absolute / metric / decimal}
; #@! TF.CreationDate,2021-06-28T19:19:29-03:00
; #@! TF.GenerationSoftware,Kicad,Pcbnew,(5.1.2)-2
; #@! TF.FileFunction,Plated,1,2,PTH
FMAT,2
METRIC
T1C0.400
T2C0.600
T3C0.800
T4C1.000
T5C1.100
T6C1.168
T7C1.200
T8C1.300
T9C1.520
%
G90
G05
T1
X50.8Y-152.209
X51.689Y-152.209
X52.133Y-136.334
X52.133Y-141.224
X53.086Y-136.334
X53.086Y-141.224
X54.038Y-136.334
X54.673Y-156.337
X54.673Y-157.226
X55.4Y-99.2
X55.4Y-100.1
X55.4Y-101.0
X56.7Y-86.9
X57.6Y-86.9
X58.3Y-107.8
X58.3Y-108.8
X58.3Y-117.1
X58.3Y-118.0
X58.3Y-118.9
X59.5Y-105.6
X59.69Y-155.067
X60.389Y-137.668
X60.5Y-105.6
X60.579Y-155.067
X60.77Y-147.447
X60.77Y-148.336
X60.896Y-128.778
X60.896Y-129.667
X60.896Y-130.556
X61.277Y-137.668
X62.4Y-106.9
X63.3Y-106.9
X63.754Y-136.462
X63.754Y-137.35
X63.8Y-87.5
X63.8Y-88.4
X63.8Y-98.0
X63.8Y-98.9
X66.8Y-109.6
X66.992Y-150.876
X67.4Y-92.1
X67.4Y-110.3
X67.501Y-130.365
X67.882Y-150.876
X67.882Y-154.495
X67.9Y-92.8
X68.072Y-159.512
X68.072Y-160.528
X68.453Y-130.365
X68.77Y-154.495
X72.453Y-138.049
X73.469Y-138.049
X74.2Y-102.6
X75.2Y-102.6
X76.2Y-102.6
X82.74Y-134.048
X82.74Y-135.001
X82.74Y-135.953
X82.74Y-136.969
X84.201Y-124.968
X85.1Y-135.1
X85.1Y-136.1
X85.1Y-137.1
X85.1Y-138.2
X85.153Y-124.968
X86.233Y-155.517
X86.233Y-156.4
X86.233Y-157.353
X86.487Y-145.732
X86.995Y-129.095
X87.0Y-130.81
X87.439Y-145.732
X88.0Y-130.81
X88.011Y-129.095
X88.963Y-129.095
X89.0Y-130.81
X89.916Y-149.0
X90.898Y-149.0
X95.059Y-147.511
X95.186Y-158.305
X95.186Y-159.258
X95.948Y-164.401
X96.139Y-139.611
X96.139Y-140.653
X96.456Y-152.844
X96.456Y-153.733
X97.028Y-164.401
X98.044Y-164.401
X102.4Y-102.9
X102.4Y-103.9
X102.4Y-104.9
X102.87Y-141.986
X102.997Y-134.683
X107.378Y-139.954
X108.458Y-137.414
X112.459Y-155.575
X112.585Y-142.25
X112.585Y-143.415
X112.585Y-144.526
X113.347Y-155.575
X114.046Y-148.717
X114.046Y-153.606
X114.046Y-160.274
X114.236Y-155.575
X115.062Y-160.274
X115.125Y-148.717
X115.316Y-153.606
X116.078Y-160.274
X116.205Y-148.717
X117.157Y-140.081
X118.3Y-137.668
X119.316Y-166.784
X119.697Y-161.502
X120.35Y-166.025
X125.349Y-126.555
X126.365Y-126.555
X127.381Y-126.555
X181.2Y-148.5
X181.2Y-149.4
T2
X65.1Y-84.6
X66.6Y-84.6
X117.816Y-168.084
X119.316Y-168.084
X68.5Y-116.6
X68.5Y-118.1
X101.028Y-133.413
X101.028Y-134.913
T3
X107.315Y-164.521
X107.315Y-168.021
X55.689Y-162.052
X58.229Y-162.052
X60.77Y-162.052
X91.948Y-160.02
X91.948Y-162.02
X55.689Y-167.767
X58.229Y-167.767
X60.77Y-167.767
X73.85Y-118.745
X73.85Y-121.285
X73.85Y-123.825
X48.704Y-157.162
X50.704Y-157.162
X72.962Y-168.37
X72.962Y-170.37
X89.535Y-111.697
X89.535Y-115.197
X130.429Y-111.633
X130.429Y-115.133
T4
X100.965Y-129.667
X103.505Y-129.667
X88.582Y-133.731
X91.123Y-133.731
X123.761Y-135.7
X123.761Y-138.239
X123.761Y-140.779
X87.882Y-141.415
X90.422Y-141.415
X92.962Y-141.415
X87.882Y-137.605
X90.422Y-137.605
X92.962Y-137.605
X98.679Y-143.383
X101.219Y-143.383
X120.65Y-129.603
X123.19Y-129.603
X77.66Y-129.857
X80.2Y-129.857
X73.9Y-104.96
X73.9Y-107.5
X73.9Y-110.04
T5
X104.775Y-117.856
X104.775Y-120.396
X104.775Y-122.936
X95.758Y-117.856
X95.758Y-120.396
X95.758Y-122.936
X120.65Y-117.919
X120.65Y-120.459
X120.65Y-122.999
X114.617Y-164.084
X117.157Y-164.084
X119.697Y-164.084
T6
X155.75Y-151.5
X169.55Y-151.5
T7
X185.611Y-133.54
X185.611Y-138.54
X185.674Y-147.527
X185.674Y-152.527
X165.227Y-101.282
X165.227Y-108.782
X145.415Y-101.346
X145.415Y-108.846
X155.942Y-164.592
X170.942Y-164.592
X145.415Y-121.285
X145.415Y-128.785
X165.227Y-121.412
X165.227Y-128.912
T8
X114.206Y-94.742
X119.206Y-94.742
X124.206Y-94.742
X95.664Y-94.742
X100.664Y-94.742
X105.664Y-94.742
X76.741Y-94.678
X81.741Y-94.678
X86.741Y-94.678
T9
X180.0Y-163.5
X180.0Y-168.58
X51.6Y-102.34
X51.6Y-107.42
X51.6Y-112.5
X180.34Y-110.172
X180.34Y-115.252
X180.34Y-120.332
X51.6Y-90.62
X51.6Y-95.7
T0
M30
