G04 #@! TF.GenerationSoftware,KiCad,Pcbnew,(5.1.2)-2*
G04 #@! TF.CreationDate,2021-06-28T19:19:26-03:00*
G04 #@! TF.ProjectId,Amplificador_v2,416d706c-6966-4696-9361-646f725f7632,rev?*
G04 #@! TF.SameCoordinates,Original*
G04 #@! TF.FileFunction,Paste,Bot*
G04 #@! TF.FilePolarity,Positive*
%FSLAX46Y46*%
G04 Gerber Fmt 4.6, Leading zero omitted, Abs format (unit mm)*
G04 Created by KiCad (PCBNEW (5.1.2)-2) date 2021-06-28 19:19:26*
%MOMM*%
%LPD*%
G04 APERTURE LIST*
%ADD10C,0.100000*%
%ADD11C,1.350000*%
%ADD12R,3.500000X2.300000*%
%ADD13C,0.975000*%
G04 APERTURE END LIST*
D10*
G36*
X119787005Y-155806204D02*
G01*
X119811273Y-155809804D01*
X119835072Y-155815765D01*
X119858171Y-155824030D01*
X119880350Y-155834520D01*
X119901393Y-155847132D01*
X119921099Y-155861747D01*
X119939277Y-155878223D01*
X119955753Y-155896401D01*
X119970368Y-155916107D01*
X119982980Y-155937150D01*
X119993470Y-155959329D01*
X120001735Y-155982428D01*
X120007696Y-156006227D01*
X120011296Y-156030495D01*
X120012500Y-156054999D01*
X120012500Y-158905001D01*
X120011296Y-158929505D01*
X120007696Y-158953773D01*
X120001735Y-158977572D01*
X119993470Y-159000671D01*
X119982980Y-159022850D01*
X119970368Y-159043893D01*
X119955753Y-159063599D01*
X119939277Y-159081777D01*
X119921099Y-159098253D01*
X119901393Y-159112868D01*
X119880350Y-159125480D01*
X119858171Y-159135970D01*
X119835072Y-159144235D01*
X119811273Y-159150196D01*
X119787005Y-159153796D01*
X119762501Y-159155000D01*
X118912499Y-159155000D01*
X118887995Y-159153796D01*
X118863727Y-159150196D01*
X118839928Y-159144235D01*
X118816829Y-159135970D01*
X118794650Y-159125480D01*
X118773607Y-159112868D01*
X118753901Y-159098253D01*
X118735723Y-159081777D01*
X118719247Y-159063599D01*
X118704632Y-159043893D01*
X118692020Y-159022850D01*
X118681530Y-159000671D01*
X118673265Y-158977572D01*
X118667304Y-158953773D01*
X118663704Y-158929505D01*
X118662500Y-158905001D01*
X118662500Y-156054999D01*
X118663704Y-156030495D01*
X118667304Y-156006227D01*
X118673265Y-155982428D01*
X118681530Y-155959329D01*
X118692020Y-155937150D01*
X118704632Y-155916107D01*
X118719247Y-155896401D01*
X118735723Y-155878223D01*
X118753901Y-155861747D01*
X118773607Y-155847132D01*
X118794650Y-155834520D01*
X118816829Y-155824030D01*
X118839928Y-155815765D01*
X118863727Y-155809804D01*
X118887995Y-155806204D01*
X118912499Y-155805000D01*
X119762501Y-155805000D01*
X119787005Y-155806204D01*
X119787005Y-155806204D01*
G37*
D11*
X119337500Y-157480000D03*
D10*
G36*
X125587005Y-155806204D02*
G01*
X125611273Y-155809804D01*
X125635072Y-155815765D01*
X125658171Y-155824030D01*
X125680350Y-155834520D01*
X125701393Y-155847132D01*
X125721099Y-155861747D01*
X125739277Y-155878223D01*
X125755753Y-155896401D01*
X125770368Y-155916107D01*
X125782980Y-155937150D01*
X125793470Y-155959329D01*
X125801735Y-155982428D01*
X125807696Y-156006227D01*
X125811296Y-156030495D01*
X125812500Y-156054999D01*
X125812500Y-158905001D01*
X125811296Y-158929505D01*
X125807696Y-158953773D01*
X125801735Y-158977572D01*
X125793470Y-159000671D01*
X125782980Y-159022850D01*
X125770368Y-159043893D01*
X125755753Y-159063599D01*
X125739277Y-159081777D01*
X125721099Y-159098253D01*
X125701393Y-159112868D01*
X125680350Y-159125480D01*
X125658171Y-159135970D01*
X125635072Y-159144235D01*
X125611273Y-159150196D01*
X125587005Y-159153796D01*
X125562501Y-159155000D01*
X124712499Y-159155000D01*
X124687995Y-159153796D01*
X124663727Y-159150196D01*
X124639928Y-159144235D01*
X124616829Y-159135970D01*
X124594650Y-159125480D01*
X124573607Y-159112868D01*
X124553901Y-159098253D01*
X124535723Y-159081777D01*
X124519247Y-159063599D01*
X124504632Y-159043893D01*
X124492020Y-159022850D01*
X124481530Y-159000671D01*
X124473265Y-158977572D01*
X124467304Y-158953773D01*
X124463704Y-158929505D01*
X124462500Y-158905001D01*
X124462500Y-156054999D01*
X124463704Y-156030495D01*
X124467304Y-156006227D01*
X124473265Y-155982428D01*
X124481530Y-155959329D01*
X124492020Y-155937150D01*
X124504632Y-155916107D01*
X124519247Y-155896401D01*
X124535723Y-155878223D01*
X124553901Y-155861747D01*
X124573607Y-155847132D01*
X124594650Y-155834520D01*
X124616829Y-155824030D01*
X124639928Y-155815765D01*
X124663727Y-155809804D01*
X124687995Y-155806204D01*
X124712499Y-155805000D01*
X125562501Y-155805000D01*
X125587005Y-155806204D01*
X125587005Y-155806204D01*
G37*
D11*
X125137500Y-157480000D03*
D12*
X119728000Y-152082500D03*
X125128000Y-152082500D03*
D10*
G36*
X114716642Y-158248674D02*
G01*
X114740303Y-158252184D01*
X114763507Y-158257996D01*
X114786029Y-158266054D01*
X114807653Y-158276282D01*
X114828170Y-158288579D01*
X114847383Y-158302829D01*
X114865107Y-158318893D01*
X114881171Y-158336617D01*
X114895421Y-158355830D01*
X114907718Y-158376347D01*
X114917946Y-158397971D01*
X114926004Y-158420493D01*
X114931816Y-158443697D01*
X114935326Y-158467358D01*
X114936500Y-158491250D01*
X114936500Y-158978750D01*
X114935326Y-159002642D01*
X114931816Y-159026303D01*
X114926004Y-159049507D01*
X114917946Y-159072029D01*
X114907718Y-159093653D01*
X114895421Y-159114170D01*
X114881171Y-159133383D01*
X114865107Y-159151107D01*
X114847383Y-159167171D01*
X114828170Y-159181421D01*
X114807653Y-159193718D01*
X114786029Y-159203946D01*
X114763507Y-159212004D01*
X114740303Y-159217816D01*
X114716642Y-159221326D01*
X114692750Y-159222500D01*
X113780250Y-159222500D01*
X113756358Y-159221326D01*
X113732697Y-159217816D01*
X113709493Y-159212004D01*
X113686971Y-159203946D01*
X113665347Y-159193718D01*
X113644830Y-159181421D01*
X113625617Y-159167171D01*
X113607893Y-159151107D01*
X113591829Y-159133383D01*
X113577579Y-159114170D01*
X113565282Y-159093653D01*
X113555054Y-159072029D01*
X113546996Y-159049507D01*
X113541184Y-159026303D01*
X113537674Y-159002642D01*
X113536500Y-158978750D01*
X113536500Y-158491250D01*
X113537674Y-158467358D01*
X113541184Y-158443697D01*
X113546996Y-158420493D01*
X113555054Y-158397971D01*
X113565282Y-158376347D01*
X113577579Y-158355830D01*
X113591829Y-158336617D01*
X113607893Y-158318893D01*
X113625617Y-158302829D01*
X113644830Y-158288579D01*
X113665347Y-158276282D01*
X113686971Y-158266054D01*
X113709493Y-158257996D01*
X113732697Y-158252184D01*
X113756358Y-158248674D01*
X113780250Y-158247500D01*
X114692750Y-158247500D01*
X114716642Y-158248674D01*
X114716642Y-158248674D01*
G37*
D13*
X114236500Y-158735000D03*
D10*
G36*
X114716642Y-156373674D02*
G01*
X114740303Y-156377184D01*
X114763507Y-156382996D01*
X114786029Y-156391054D01*
X114807653Y-156401282D01*
X114828170Y-156413579D01*
X114847383Y-156427829D01*
X114865107Y-156443893D01*
X114881171Y-156461617D01*
X114895421Y-156480830D01*
X114907718Y-156501347D01*
X114917946Y-156522971D01*
X114926004Y-156545493D01*
X114931816Y-156568697D01*
X114935326Y-156592358D01*
X114936500Y-156616250D01*
X114936500Y-157103750D01*
X114935326Y-157127642D01*
X114931816Y-157151303D01*
X114926004Y-157174507D01*
X114917946Y-157197029D01*
X114907718Y-157218653D01*
X114895421Y-157239170D01*
X114881171Y-157258383D01*
X114865107Y-157276107D01*
X114847383Y-157292171D01*
X114828170Y-157306421D01*
X114807653Y-157318718D01*
X114786029Y-157328946D01*
X114763507Y-157337004D01*
X114740303Y-157342816D01*
X114716642Y-157346326D01*
X114692750Y-157347500D01*
X113780250Y-157347500D01*
X113756358Y-157346326D01*
X113732697Y-157342816D01*
X113709493Y-157337004D01*
X113686971Y-157328946D01*
X113665347Y-157318718D01*
X113644830Y-157306421D01*
X113625617Y-157292171D01*
X113607893Y-157276107D01*
X113591829Y-157258383D01*
X113577579Y-157239170D01*
X113565282Y-157218653D01*
X113555054Y-157197029D01*
X113546996Y-157174507D01*
X113541184Y-157151303D01*
X113537674Y-157127642D01*
X113536500Y-157103750D01*
X113536500Y-156616250D01*
X113537674Y-156592358D01*
X113541184Y-156568697D01*
X113546996Y-156545493D01*
X113555054Y-156522971D01*
X113565282Y-156501347D01*
X113577579Y-156480830D01*
X113591829Y-156461617D01*
X113607893Y-156443893D01*
X113625617Y-156427829D01*
X113644830Y-156413579D01*
X113665347Y-156401282D01*
X113686971Y-156391054D01*
X113709493Y-156382996D01*
X113732697Y-156377184D01*
X113756358Y-156373674D01*
X113780250Y-156372500D01*
X114692750Y-156372500D01*
X114716642Y-156373674D01*
X114716642Y-156373674D01*
G37*
D13*
X114236500Y-156860000D03*
D10*
G36*
X117002642Y-158248674D02*
G01*
X117026303Y-158252184D01*
X117049507Y-158257996D01*
X117072029Y-158266054D01*
X117093653Y-158276282D01*
X117114170Y-158288579D01*
X117133383Y-158302829D01*
X117151107Y-158318893D01*
X117167171Y-158336617D01*
X117181421Y-158355830D01*
X117193718Y-158376347D01*
X117203946Y-158397971D01*
X117212004Y-158420493D01*
X117217816Y-158443697D01*
X117221326Y-158467358D01*
X117222500Y-158491250D01*
X117222500Y-158978750D01*
X117221326Y-159002642D01*
X117217816Y-159026303D01*
X117212004Y-159049507D01*
X117203946Y-159072029D01*
X117193718Y-159093653D01*
X117181421Y-159114170D01*
X117167171Y-159133383D01*
X117151107Y-159151107D01*
X117133383Y-159167171D01*
X117114170Y-159181421D01*
X117093653Y-159193718D01*
X117072029Y-159203946D01*
X117049507Y-159212004D01*
X117026303Y-159217816D01*
X117002642Y-159221326D01*
X116978750Y-159222500D01*
X116066250Y-159222500D01*
X116042358Y-159221326D01*
X116018697Y-159217816D01*
X115995493Y-159212004D01*
X115972971Y-159203946D01*
X115951347Y-159193718D01*
X115930830Y-159181421D01*
X115911617Y-159167171D01*
X115893893Y-159151107D01*
X115877829Y-159133383D01*
X115863579Y-159114170D01*
X115851282Y-159093653D01*
X115841054Y-159072029D01*
X115832996Y-159049507D01*
X115827184Y-159026303D01*
X115823674Y-159002642D01*
X115822500Y-158978750D01*
X115822500Y-158491250D01*
X115823674Y-158467358D01*
X115827184Y-158443697D01*
X115832996Y-158420493D01*
X115841054Y-158397971D01*
X115851282Y-158376347D01*
X115863579Y-158355830D01*
X115877829Y-158336617D01*
X115893893Y-158318893D01*
X115911617Y-158302829D01*
X115930830Y-158288579D01*
X115951347Y-158276282D01*
X115972971Y-158266054D01*
X115995493Y-158257996D01*
X116018697Y-158252184D01*
X116042358Y-158248674D01*
X116066250Y-158247500D01*
X116978750Y-158247500D01*
X117002642Y-158248674D01*
X117002642Y-158248674D01*
G37*
D13*
X116522500Y-158735000D03*
D10*
G36*
X117002642Y-156373674D02*
G01*
X117026303Y-156377184D01*
X117049507Y-156382996D01*
X117072029Y-156391054D01*
X117093653Y-156401282D01*
X117114170Y-156413579D01*
X117133383Y-156427829D01*
X117151107Y-156443893D01*
X117167171Y-156461617D01*
X117181421Y-156480830D01*
X117193718Y-156501347D01*
X117203946Y-156522971D01*
X117212004Y-156545493D01*
X117217816Y-156568697D01*
X117221326Y-156592358D01*
X117222500Y-156616250D01*
X117222500Y-157103750D01*
X117221326Y-157127642D01*
X117217816Y-157151303D01*
X117212004Y-157174507D01*
X117203946Y-157197029D01*
X117193718Y-157218653D01*
X117181421Y-157239170D01*
X117167171Y-157258383D01*
X117151107Y-157276107D01*
X117133383Y-157292171D01*
X117114170Y-157306421D01*
X117093653Y-157318718D01*
X117072029Y-157328946D01*
X117049507Y-157337004D01*
X117026303Y-157342816D01*
X117002642Y-157346326D01*
X116978750Y-157347500D01*
X116066250Y-157347500D01*
X116042358Y-157346326D01*
X116018697Y-157342816D01*
X115995493Y-157337004D01*
X115972971Y-157328946D01*
X115951347Y-157318718D01*
X115930830Y-157306421D01*
X115911617Y-157292171D01*
X115893893Y-157276107D01*
X115877829Y-157258383D01*
X115863579Y-157239170D01*
X115851282Y-157218653D01*
X115841054Y-157197029D01*
X115832996Y-157174507D01*
X115827184Y-157151303D01*
X115823674Y-157127642D01*
X115822500Y-157103750D01*
X115822500Y-156616250D01*
X115823674Y-156592358D01*
X115827184Y-156568697D01*
X115832996Y-156545493D01*
X115841054Y-156522971D01*
X115851282Y-156501347D01*
X115863579Y-156480830D01*
X115877829Y-156461617D01*
X115893893Y-156443893D01*
X115911617Y-156427829D01*
X115930830Y-156413579D01*
X115951347Y-156401282D01*
X115972971Y-156391054D01*
X115995493Y-156382996D01*
X116018697Y-156377184D01*
X116042358Y-156373674D01*
X116066250Y-156372500D01*
X116978750Y-156372500D01*
X117002642Y-156373674D01*
X117002642Y-156373674D01*
G37*
D13*
X116522500Y-156860000D03*
D10*
G36*
X116812142Y-151898674D02*
G01*
X116835803Y-151902184D01*
X116859007Y-151907996D01*
X116881529Y-151916054D01*
X116903153Y-151926282D01*
X116923670Y-151938579D01*
X116942883Y-151952829D01*
X116960607Y-151968893D01*
X116976671Y-151986617D01*
X116990921Y-152005830D01*
X117003218Y-152026347D01*
X117013446Y-152047971D01*
X117021504Y-152070493D01*
X117027316Y-152093697D01*
X117030826Y-152117358D01*
X117032000Y-152141250D01*
X117032000Y-152628750D01*
X117030826Y-152652642D01*
X117027316Y-152676303D01*
X117021504Y-152699507D01*
X117013446Y-152722029D01*
X117003218Y-152743653D01*
X116990921Y-152764170D01*
X116976671Y-152783383D01*
X116960607Y-152801107D01*
X116942883Y-152817171D01*
X116923670Y-152831421D01*
X116903153Y-152843718D01*
X116881529Y-152853946D01*
X116859007Y-152862004D01*
X116835803Y-152867816D01*
X116812142Y-152871326D01*
X116788250Y-152872500D01*
X115875750Y-152872500D01*
X115851858Y-152871326D01*
X115828197Y-152867816D01*
X115804993Y-152862004D01*
X115782471Y-152853946D01*
X115760847Y-152843718D01*
X115740330Y-152831421D01*
X115721117Y-152817171D01*
X115703393Y-152801107D01*
X115687329Y-152783383D01*
X115673079Y-152764170D01*
X115660782Y-152743653D01*
X115650554Y-152722029D01*
X115642496Y-152699507D01*
X115636684Y-152676303D01*
X115633174Y-152652642D01*
X115632000Y-152628750D01*
X115632000Y-152141250D01*
X115633174Y-152117358D01*
X115636684Y-152093697D01*
X115642496Y-152070493D01*
X115650554Y-152047971D01*
X115660782Y-152026347D01*
X115673079Y-152005830D01*
X115687329Y-151986617D01*
X115703393Y-151968893D01*
X115721117Y-151952829D01*
X115740330Y-151938579D01*
X115760847Y-151926282D01*
X115782471Y-151916054D01*
X115804993Y-151907996D01*
X115828197Y-151902184D01*
X115851858Y-151898674D01*
X115875750Y-151897500D01*
X116788250Y-151897500D01*
X116812142Y-151898674D01*
X116812142Y-151898674D01*
G37*
D13*
X116332000Y-152385000D03*
D10*
G36*
X116812142Y-150023674D02*
G01*
X116835803Y-150027184D01*
X116859007Y-150032996D01*
X116881529Y-150041054D01*
X116903153Y-150051282D01*
X116923670Y-150063579D01*
X116942883Y-150077829D01*
X116960607Y-150093893D01*
X116976671Y-150111617D01*
X116990921Y-150130830D01*
X117003218Y-150151347D01*
X117013446Y-150172971D01*
X117021504Y-150195493D01*
X117027316Y-150218697D01*
X117030826Y-150242358D01*
X117032000Y-150266250D01*
X117032000Y-150753750D01*
X117030826Y-150777642D01*
X117027316Y-150801303D01*
X117021504Y-150824507D01*
X117013446Y-150847029D01*
X117003218Y-150868653D01*
X116990921Y-150889170D01*
X116976671Y-150908383D01*
X116960607Y-150926107D01*
X116942883Y-150942171D01*
X116923670Y-150956421D01*
X116903153Y-150968718D01*
X116881529Y-150978946D01*
X116859007Y-150987004D01*
X116835803Y-150992816D01*
X116812142Y-150996326D01*
X116788250Y-150997500D01*
X115875750Y-150997500D01*
X115851858Y-150996326D01*
X115828197Y-150992816D01*
X115804993Y-150987004D01*
X115782471Y-150978946D01*
X115760847Y-150968718D01*
X115740330Y-150956421D01*
X115721117Y-150942171D01*
X115703393Y-150926107D01*
X115687329Y-150908383D01*
X115673079Y-150889170D01*
X115660782Y-150868653D01*
X115650554Y-150847029D01*
X115642496Y-150824507D01*
X115636684Y-150801303D01*
X115633174Y-150777642D01*
X115632000Y-150753750D01*
X115632000Y-150266250D01*
X115633174Y-150242358D01*
X115636684Y-150218697D01*
X115642496Y-150195493D01*
X115650554Y-150172971D01*
X115660782Y-150151347D01*
X115673079Y-150130830D01*
X115687329Y-150111617D01*
X115703393Y-150093893D01*
X115721117Y-150077829D01*
X115740330Y-150063579D01*
X115760847Y-150051282D01*
X115782471Y-150041054D01*
X115804993Y-150032996D01*
X115828197Y-150027184D01*
X115851858Y-150023674D01*
X115875750Y-150022500D01*
X116788250Y-150022500D01*
X116812142Y-150023674D01*
X116812142Y-150023674D01*
G37*
D13*
X116332000Y-150510000D03*
D10*
G36*
X114526142Y-151898674D02*
G01*
X114549803Y-151902184D01*
X114573007Y-151907996D01*
X114595529Y-151916054D01*
X114617153Y-151926282D01*
X114637670Y-151938579D01*
X114656883Y-151952829D01*
X114674607Y-151968893D01*
X114690671Y-151986617D01*
X114704921Y-152005830D01*
X114717218Y-152026347D01*
X114727446Y-152047971D01*
X114735504Y-152070493D01*
X114741316Y-152093697D01*
X114744826Y-152117358D01*
X114746000Y-152141250D01*
X114746000Y-152628750D01*
X114744826Y-152652642D01*
X114741316Y-152676303D01*
X114735504Y-152699507D01*
X114727446Y-152722029D01*
X114717218Y-152743653D01*
X114704921Y-152764170D01*
X114690671Y-152783383D01*
X114674607Y-152801107D01*
X114656883Y-152817171D01*
X114637670Y-152831421D01*
X114617153Y-152843718D01*
X114595529Y-152853946D01*
X114573007Y-152862004D01*
X114549803Y-152867816D01*
X114526142Y-152871326D01*
X114502250Y-152872500D01*
X113589750Y-152872500D01*
X113565858Y-152871326D01*
X113542197Y-152867816D01*
X113518993Y-152862004D01*
X113496471Y-152853946D01*
X113474847Y-152843718D01*
X113454330Y-152831421D01*
X113435117Y-152817171D01*
X113417393Y-152801107D01*
X113401329Y-152783383D01*
X113387079Y-152764170D01*
X113374782Y-152743653D01*
X113364554Y-152722029D01*
X113356496Y-152699507D01*
X113350684Y-152676303D01*
X113347174Y-152652642D01*
X113346000Y-152628750D01*
X113346000Y-152141250D01*
X113347174Y-152117358D01*
X113350684Y-152093697D01*
X113356496Y-152070493D01*
X113364554Y-152047971D01*
X113374782Y-152026347D01*
X113387079Y-152005830D01*
X113401329Y-151986617D01*
X113417393Y-151968893D01*
X113435117Y-151952829D01*
X113454330Y-151938579D01*
X113474847Y-151926282D01*
X113496471Y-151916054D01*
X113518993Y-151907996D01*
X113542197Y-151902184D01*
X113565858Y-151898674D01*
X113589750Y-151897500D01*
X114502250Y-151897500D01*
X114526142Y-151898674D01*
X114526142Y-151898674D01*
G37*
D13*
X114046000Y-152385000D03*
D10*
G36*
X114526142Y-150023674D02*
G01*
X114549803Y-150027184D01*
X114573007Y-150032996D01*
X114595529Y-150041054D01*
X114617153Y-150051282D01*
X114637670Y-150063579D01*
X114656883Y-150077829D01*
X114674607Y-150093893D01*
X114690671Y-150111617D01*
X114704921Y-150130830D01*
X114717218Y-150151347D01*
X114727446Y-150172971D01*
X114735504Y-150195493D01*
X114741316Y-150218697D01*
X114744826Y-150242358D01*
X114746000Y-150266250D01*
X114746000Y-150753750D01*
X114744826Y-150777642D01*
X114741316Y-150801303D01*
X114735504Y-150824507D01*
X114727446Y-150847029D01*
X114717218Y-150868653D01*
X114704921Y-150889170D01*
X114690671Y-150908383D01*
X114674607Y-150926107D01*
X114656883Y-150942171D01*
X114637670Y-150956421D01*
X114617153Y-150968718D01*
X114595529Y-150978946D01*
X114573007Y-150987004D01*
X114549803Y-150992816D01*
X114526142Y-150996326D01*
X114502250Y-150997500D01*
X113589750Y-150997500D01*
X113565858Y-150996326D01*
X113542197Y-150992816D01*
X113518993Y-150987004D01*
X113496471Y-150978946D01*
X113474847Y-150968718D01*
X113454330Y-150956421D01*
X113435117Y-150942171D01*
X113417393Y-150926107D01*
X113401329Y-150908383D01*
X113387079Y-150889170D01*
X113374782Y-150868653D01*
X113364554Y-150847029D01*
X113356496Y-150824507D01*
X113350684Y-150801303D01*
X113347174Y-150777642D01*
X113346000Y-150753750D01*
X113346000Y-150266250D01*
X113347174Y-150242358D01*
X113350684Y-150218697D01*
X113356496Y-150195493D01*
X113364554Y-150172971D01*
X113374782Y-150151347D01*
X113387079Y-150130830D01*
X113401329Y-150111617D01*
X113417393Y-150093893D01*
X113435117Y-150077829D01*
X113454330Y-150063579D01*
X113474847Y-150051282D01*
X113496471Y-150041054D01*
X113518993Y-150032996D01*
X113542197Y-150027184D01*
X113565858Y-150023674D01*
X113589750Y-150022500D01*
X114502250Y-150022500D01*
X114526142Y-150023674D01*
X114526142Y-150023674D01*
G37*
D13*
X114046000Y-150510000D03*
M02*
