G04 #@! TF.GenerationSoftware,KiCad,Pcbnew,(5.1.2)-2*
G04 #@! TF.CreationDate,2021-06-28T19:19:26-03:00*
G04 #@! TF.ProjectId,Amplificador_v2,416d706c-6966-4696-9361-646f725f7632,rev?*
G04 #@! TF.SameCoordinates,Original*
G04 #@! TF.FileFunction,Soldermask,Bot*
G04 #@! TF.FilePolarity,Negative*
%FSLAX46Y46*%
G04 Gerber Fmt 4.6, Leading zero omitted, Abs format (unit mm)*
G04 Created by KiCad (PCBNEW (5.1.2)-2) date 2021-06-28 19:19:26*
%MOMM*%
%LPD*%
G04 APERTURE LIST*
%ADD10C,0.100000*%
G04 APERTURE END LIST*
D10*
G36*
X191375256Y-173891298D02*
G01*
X191481579Y-173912447D01*
X191782042Y-174036903D01*
X192052451Y-174217585D01*
X192282415Y-174447549D01*
X192463097Y-174717958D01*
X192587553Y-175018421D01*
X192651000Y-175337391D01*
X192651000Y-175662609D01*
X192587553Y-175981579D01*
X192463097Y-176282042D01*
X192282415Y-176552451D01*
X192052451Y-176782415D01*
X191782042Y-176963097D01*
X191481579Y-177087553D01*
X191375256Y-177108702D01*
X191162611Y-177151000D01*
X190837389Y-177151000D01*
X190624744Y-177108702D01*
X190518421Y-177087553D01*
X190217958Y-176963097D01*
X189947549Y-176782415D01*
X189717585Y-176552451D01*
X189536903Y-176282042D01*
X189412447Y-175981579D01*
X189349000Y-175662609D01*
X189349000Y-175337391D01*
X189412447Y-175018421D01*
X189536903Y-174717958D01*
X189717585Y-174447549D01*
X189947549Y-174217585D01*
X190217958Y-174036903D01*
X190518421Y-173912447D01*
X190624744Y-173891298D01*
X190837389Y-173849000D01*
X191162611Y-173849000D01*
X191375256Y-173891298D01*
X191375256Y-173891298D01*
G37*
G36*
X50375256Y-173891298D02*
G01*
X50481579Y-173912447D01*
X50782042Y-174036903D01*
X51052451Y-174217585D01*
X51282415Y-174447549D01*
X51463097Y-174717958D01*
X51587553Y-175018421D01*
X51651000Y-175337391D01*
X51651000Y-175662609D01*
X51587553Y-175981579D01*
X51463097Y-176282042D01*
X51282415Y-176552451D01*
X51052451Y-176782415D01*
X50782042Y-176963097D01*
X50481579Y-177087553D01*
X50375256Y-177108702D01*
X50162611Y-177151000D01*
X49837389Y-177151000D01*
X49624744Y-177108702D01*
X49518421Y-177087553D01*
X49217958Y-176963097D01*
X48947549Y-176782415D01*
X48717585Y-176552451D01*
X48536903Y-176282042D01*
X48412447Y-175981579D01*
X48349000Y-175662609D01*
X48349000Y-175337391D01*
X48412447Y-175018421D01*
X48536903Y-174717958D01*
X48717585Y-174447549D01*
X48947549Y-174217585D01*
X49217958Y-174036903D01*
X49518421Y-173912447D01*
X49624744Y-173891298D01*
X49837389Y-173849000D01*
X50162611Y-173849000D01*
X50375256Y-173891298D01*
X50375256Y-173891298D01*
G37*
G36*
X73812500Y-171221500D02*
G01*
X72110500Y-171221500D01*
X72110500Y-169519500D01*
X73812500Y-169519500D01*
X73812500Y-171221500D01*
X73812500Y-171221500D01*
G37*
G36*
X180302585Y-167058802D02*
G01*
X180452410Y-167088604D01*
X180734674Y-167205521D01*
X180988705Y-167375259D01*
X181204741Y-167591295D01*
X181374479Y-167845326D01*
X181491396Y-168127590D01*
X181503353Y-168187703D01*
X181551000Y-168427239D01*
X181551000Y-168732761D01*
X181523303Y-168872000D01*
X181491396Y-169032410D01*
X181374479Y-169314674D01*
X181204741Y-169568705D01*
X180988705Y-169784741D01*
X180734674Y-169954479D01*
X180452410Y-170071396D01*
X180302585Y-170101198D01*
X180152761Y-170131000D01*
X179847239Y-170131000D01*
X179697415Y-170101198D01*
X179547590Y-170071396D01*
X179265326Y-169954479D01*
X179011295Y-169784741D01*
X178795259Y-169568705D01*
X178625521Y-169314674D01*
X178508604Y-169032410D01*
X178476697Y-168872000D01*
X178449000Y-168732761D01*
X178449000Y-168427239D01*
X178496647Y-168187703D01*
X178508604Y-168127590D01*
X178625521Y-167845326D01*
X178795259Y-167591295D01*
X179011295Y-167375259D01*
X179265326Y-167205521D01*
X179547590Y-167088604D01*
X179697415Y-167058802D01*
X179847239Y-167029000D01*
X180152761Y-167029000D01*
X180302585Y-167058802D01*
X180302585Y-167058802D01*
G37*
G36*
X73209728Y-167552203D02*
G01*
X73364600Y-167616353D01*
X73503981Y-167709485D01*
X73622515Y-167828019D01*
X73715647Y-167967400D01*
X73779797Y-168122272D01*
X73812500Y-168286684D01*
X73812500Y-168454316D01*
X73779797Y-168618728D01*
X73715647Y-168773600D01*
X73622515Y-168912981D01*
X73503981Y-169031515D01*
X73364600Y-169124647D01*
X73209728Y-169188797D01*
X73045316Y-169221500D01*
X72877684Y-169221500D01*
X72713272Y-169188797D01*
X72558400Y-169124647D01*
X72419019Y-169031515D01*
X72300485Y-168912981D01*
X72207353Y-168773600D01*
X72143203Y-168618728D01*
X72110500Y-168454316D01*
X72110500Y-168286684D01*
X72143203Y-168122272D01*
X72207353Y-167967400D01*
X72300485Y-167828019D01*
X72419019Y-167709485D01*
X72558400Y-167616353D01*
X72713272Y-167552203D01*
X72877684Y-167519500D01*
X73045316Y-167519500D01*
X73209728Y-167552203D01*
X73209728Y-167552203D01*
G37*
G36*
X108166000Y-168872000D02*
G01*
X106464000Y-168872000D01*
X106464000Y-167170000D01*
X108166000Y-167170000D01*
X108166000Y-168872000D01*
X108166000Y-168872000D01*
G37*
G36*
X118006390Y-167458517D02*
G01*
X118124864Y-167507591D01*
X118231488Y-167578835D01*
X118322165Y-167669512D01*
X118393409Y-167776136D01*
X118422070Y-167845328D01*
X118442483Y-167894611D01*
X118443903Y-167901749D01*
X118451016Y-167925198D01*
X118462567Y-167946809D01*
X118478112Y-167965751D01*
X118497054Y-167981297D01*
X118518664Y-167992848D01*
X118542113Y-167999961D01*
X118566499Y-168002363D01*
X118590885Y-167999961D01*
X118614334Y-167992848D01*
X118635945Y-167981297D01*
X118654887Y-167965752D01*
X118670433Y-167946810D01*
X118681984Y-167925200D01*
X118689097Y-167901749D01*
X118690517Y-167894611D01*
X118710931Y-167845328D01*
X118739591Y-167776136D01*
X118810835Y-167669512D01*
X118901512Y-167578835D01*
X119008136Y-167507591D01*
X119126610Y-167458517D01*
X119252381Y-167433500D01*
X119380619Y-167433500D01*
X119506390Y-167458517D01*
X119624864Y-167507591D01*
X119691630Y-167552203D01*
X119731488Y-167578835D01*
X119822165Y-167669512D01*
X119893410Y-167776138D01*
X119942483Y-167894610D01*
X119967500Y-168020381D01*
X119967500Y-168148619D01*
X119952866Y-168222190D01*
X119942483Y-168274390D01*
X119893409Y-168392864D01*
X119822165Y-168499488D01*
X119731488Y-168590165D01*
X119624864Y-168661409D01*
X119624863Y-168661410D01*
X119624862Y-168661410D01*
X119506390Y-168710483D01*
X119380619Y-168735500D01*
X119252381Y-168735500D01*
X119126610Y-168710483D01*
X119008138Y-168661410D01*
X119008137Y-168661410D01*
X119008136Y-168661409D01*
X118901512Y-168590165D01*
X118810835Y-168499488D01*
X118739591Y-168392864D01*
X118690517Y-168274390D01*
X118689097Y-168267251D01*
X118681984Y-168243802D01*
X118670433Y-168222191D01*
X118654888Y-168203249D01*
X118635946Y-168187703D01*
X118614336Y-168176152D01*
X118590887Y-168169039D01*
X118566501Y-168166637D01*
X118542115Y-168169039D01*
X118518666Y-168176152D01*
X118497055Y-168187703D01*
X118478113Y-168203248D01*
X118462567Y-168222190D01*
X118451016Y-168243800D01*
X118443903Y-168267251D01*
X118442483Y-168274390D01*
X118393409Y-168392864D01*
X118322165Y-168499488D01*
X118231488Y-168590165D01*
X118124864Y-168661409D01*
X118124863Y-168661410D01*
X118124862Y-168661410D01*
X118006390Y-168710483D01*
X117880619Y-168735500D01*
X117752381Y-168735500D01*
X117626610Y-168710483D01*
X117508138Y-168661410D01*
X117508137Y-168661410D01*
X117508136Y-168661409D01*
X117401512Y-168590165D01*
X117310835Y-168499488D01*
X117239591Y-168392864D01*
X117190517Y-168274390D01*
X117180134Y-168222190D01*
X117165500Y-168148619D01*
X117165500Y-168020381D01*
X117190517Y-167894610D01*
X117239590Y-167776138D01*
X117310835Y-167669512D01*
X117401512Y-167578835D01*
X117441370Y-167552203D01*
X117508136Y-167507591D01*
X117626610Y-167458517D01*
X117752381Y-167433500D01*
X117880619Y-167433500D01*
X118006390Y-167458517D01*
X118006390Y-167458517D01*
G37*
G36*
X60895089Y-167005876D02*
G01*
X60994393Y-167025629D01*
X61134706Y-167083748D01*
X61260984Y-167168125D01*
X61368375Y-167275516D01*
X61452752Y-167401794D01*
X61510871Y-167542107D01*
X61520655Y-167591295D01*
X61540500Y-167691062D01*
X61540500Y-167842938D01*
X61530624Y-167892589D01*
X61510871Y-167991893D01*
X61452752Y-168132206D01*
X61368375Y-168258484D01*
X61260984Y-168365875D01*
X61134706Y-168450252D01*
X60994393Y-168508371D01*
X60895089Y-168528124D01*
X60845438Y-168538000D01*
X60693562Y-168538000D01*
X60643911Y-168528124D01*
X60544607Y-168508371D01*
X60404294Y-168450252D01*
X60278016Y-168365875D01*
X60170625Y-168258484D01*
X60086248Y-168132206D01*
X60028129Y-167991893D01*
X60008376Y-167892589D01*
X59998500Y-167842938D01*
X59998500Y-167691062D01*
X60018345Y-167591295D01*
X60028129Y-167542107D01*
X60086248Y-167401794D01*
X60170625Y-167275516D01*
X60278016Y-167168125D01*
X60404294Y-167083748D01*
X60544607Y-167025629D01*
X60643911Y-167005876D01*
X60693562Y-166996000D01*
X60845438Y-166996000D01*
X60895089Y-167005876D01*
X60895089Y-167005876D01*
G37*
G36*
X58355089Y-167005876D02*
G01*
X58454393Y-167025629D01*
X58594706Y-167083748D01*
X58720984Y-167168125D01*
X58828375Y-167275516D01*
X58912752Y-167401794D01*
X58970871Y-167542107D01*
X58980655Y-167591295D01*
X59000500Y-167691062D01*
X59000500Y-167842938D01*
X58990624Y-167892589D01*
X58970871Y-167991893D01*
X58912752Y-168132206D01*
X58828375Y-168258484D01*
X58720984Y-168365875D01*
X58594706Y-168450252D01*
X58454393Y-168508371D01*
X58355089Y-168528124D01*
X58305438Y-168538000D01*
X58153562Y-168538000D01*
X58103911Y-168528124D01*
X58004607Y-168508371D01*
X57864294Y-168450252D01*
X57738016Y-168365875D01*
X57630625Y-168258484D01*
X57546248Y-168132206D01*
X57488129Y-167991893D01*
X57468376Y-167892589D01*
X57458500Y-167842938D01*
X57458500Y-167691062D01*
X57478345Y-167591295D01*
X57488129Y-167542107D01*
X57546248Y-167401794D01*
X57630625Y-167275516D01*
X57738016Y-167168125D01*
X57864294Y-167083748D01*
X58004607Y-167025629D01*
X58103911Y-167005876D01*
X58153562Y-166996000D01*
X58305438Y-166996000D01*
X58355089Y-167005876D01*
X58355089Y-167005876D01*
G37*
G36*
X55815089Y-167005876D02*
G01*
X55914393Y-167025629D01*
X56054706Y-167083748D01*
X56180984Y-167168125D01*
X56288375Y-167275516D01*
X56372752Y-167401794D01*
X56430871Y-167542107D01*
X56440655Y-167591295D01*
X56460500Y-167691062D01*
X56460500Y-167842938D01*
X56450624Y-167892589D01*
X56430871Y-167991893D01*
X56372752Y-168132206D01*
X56288375Y-168258484D01*
X56180984Y-168365875D01*
X56054706Y-168450252D01*
X55914393Y-168508371D01*
X55815089Y-168528124D01*
X55765438Y-168538000D01*
X55613562Y-168538000D01*
X55563911Y-168528124D01*
X55464607Y-168508371D01*
X55324294Y-168450252D01*
X55198016Y-168365875D01*
X55090625Y-168258484D01*
X55006248Y-168132206D01*
X54948129Y-167991893D01*
X54928376Y-167892589D01*
X54918500Y-167842938D01*
X54918500Y-167691062D01*
X54938345Y-167591295D01*
X54948129Y-167542107D01*
X55006248Y-167401794D01*
X55090625Y-167275516D01*
X55198016Y-167168125D01*
X55324294Y-167083748D01*
X55464607Y-167025629D01*
X55563911Y-167005876D01*
X55613562Y-166996000D01*
X55765438Y-166996000D01*
X55815089Y-167005876D01*
X55815089Y-167005876D01*
G37*
G36*
X156306903Y-163389075D02*
G01*
X156517455Y-163476288D01*
X156534571Y-163483378D01*
X156739466Y-163620285D01*
X156913715Y-163794534D01*
X157042455Y-163987207D01*
X157050623Y-163999431D01*
X157144925Y-164227097D01*
X157193000Y-164468786D01*
X157193000Y-164715214D01*
X157144925Y-164956903D01*
X157100780Y-165063480D01*
X157050622Y-165184571D01*
X156913715Y-165389466D01*
X156739466Y-165563715D01*
X156534571Y-165700622D01*
X156534570Y-165700623D01*
X156534569Y-165700623D01*
X156306903Y-165794925D01*
X156065214Y-165843000D01*
X155818786Y-165843000D01*
X155577097Y-165794925D01*
X155349431Y-165700623D01*
X155349430Y-165700623D01*
X155349429Y-165700622D01*
X155144534Y-165563715D01*
X154970285Y-165389466D01*
X154833378Y-165184571D01*
X154783221Y-165063480D01*
X154739075Y-164956903D01*
X154691000Y-164715214D01*
X154691000Y-164468786D01*
X154739075Y-164227097D01*
X154833377Y-163999431D01*
X154841545Y-163987207D01*
X154970285Y-163794534D01*
X155144534Y-163620285D01*
X155349429Y-163483378D01*
X155366546Y-163476288D01*
X155577097Y-163389075D01*
X155818786Y-163341000D01*
X156065214Y-163341000D01*
X156306903Y-163389075D01*
X156306903Y-163389075D01*
G37*
G36*
X171306903Y-163389075D02*
G01*
X171517455Y-163476288D01*
X171534571Y-163483378D01*
X171739466Y-163620285D01*
X171913715Y-163794534D01*
X172042455Y-163987207D01*
X172050623Y-163999431D01*
X172144925Y-164227097D01*
X172193000Y-164468786D01*
X172193000Y-164715214D01*
X172144925Y-164956903D01*
X172100780Y-165063480D01*
X172050622Y-165184571D01*
X171913715Y-165389466D01*
X171739466Y-165563715D01*
X171534571Y-165700622D01*
X171534570Y-165700623D01*
X171534569Y-165700623D01*
X171306903Y-165794925D01*
X171065214Y-165843000D01*
X170818786Y-165843000D01*
X170577097Y-165794925D01*
X170349431Y-165700623D01*
X170349430Y-165700623D01*
X170349429Y-165700622D01*
X170144534Y-165563715D01*
X169970285Y-165389466D01*
X169833378Y-165184571D01*
X169783221Y-165063480D01*
X169739075Y-164956903D01*
X169691000Y-164715214D01*
X169691000Y-164468786D01*
X169739075Y-164227097D01*
X169833377Y-163999431D01*
X169841545Y-163987207D01*
X169970285Y-163794534D01*
X170144534Y-163620285D01*
X170349429Y-163483378D01*
X170366546Y-163476288D01*
X170577097Y-163389075D01*
X170818786Y-163341000D01*
X171065214Y-163341000D01*
X171306903Y-163389075D01*
X171306903Y-163389075D01*
G37*
G36*
X107563228Y-163702703D02*
G01*
X107718100Y-163766853D01*
X107857481Y-163859985D01*
X107976015Y-163978519D01*
X108069147Y-164117900D01*
X108133297Y-164272772D01*
X108166000Y-164437184D01*
X108166000Y-164604816D01*
X108133297Y-164769228D01*
X108069147Y-164924100D01*
X107976015Y-165063481D01*
X107857481Y-165182015D01*
X107718100Y-165275147D01*
X107563228Y-165339297D01*
X107398816Y-165372000D01*
X107231184Y-165372000D01*
X107066772Y-165339297D01*
X106911900Y-165275147D01*
X106772519Y-165182015D01*
X106653985Y-165063481D01*
X106560853Y-164924100D01*
X106496703Y-164769228D01*
X106464000Y-164604816D01*
X106464000Y-164437184D01*
X106496703Y-164272772D01*
X106560853Y-164117900D01*
X106653985Y-163978519D01*
X106772519Y-163859985D01*
X106911900Y-163766853D01*
X107066772Y-163702703D01*
X107231184Y-163670000D01*
X107398816Y-163670000D01*
X107563228Y-163702703D01*
X107563228Y-163702703D01*
G37*
G36*
X119894219Y-163047520D02*
G01*
X120083380Y-163104901D01*
X120083383Y-163104902D01*
X120175833Y-163154318D01*
X120257712Y-163198083D01*
X120410515Y-163323485D01*
X120535917Y-163476288D01*
X120629099Y-163650619D01*
X120686480Y-163839780D01*
X120701000Y-163987206D01*
X120701000Y-164180793D01*
X120686480Y-164328219D01*
X120643840Y-164468786D01*
X120629098Y-164517383D01*
X120582364Y-164604815D01*
X120535917Y-164691712D01*
X120410515Y-164844515D01*
X120257712Y-164969917D01*
X120083381Y-165063099D01*
X119894220Y-165120480D01*
X119697500Y-165139855D01*
X119500781Y-165120480D01*
X119311620Y-165063099D01*
X119137288Y-164969917D01*
X118984485Y-164844515D01*
X118859083Y-164691712D01*
X118765901Y-164517381D01*
X118708520Y-164328220D01*
X118694000Y-164180794D01*
X118694000Y-163987207D01*
X118708520Y-163839781D01*
X118765901Y-163650620D01*
X118765902Y-163650617D01*
X118815318Y-163558167D01*
X118859083Y-163476288D01*
X118984485Y-163323485D01*
X119137288Y-163198083D01*
X119311619Y-163104901D01*
X119500780Y-163047520D01*
X119697500Y-163028145D01*
X119894219Y-163047520D01*
X119894219Y-163047520D01*
G37*
G36*
X117354219Y-163047520D02*
G01*
X117543380Y-163104901D01*
X117543383Y-163104902D01*
X117635833Y-163154318D01*
X117717712Y-163198083D01*
X117870515Y-163323485D01*
X117995917Y-163476288D01*
X118089099Y-163650619D01*
X118146480Y-163839780D01*
X118161000Y-163987206D01*
X118161000Y-164180793D01*
X118146480Y-164328219D01*
X118103840Y-164468786D01*
X118089098Y-164517383D01*
X118042364Y-164604815D01*
X117995917Y-164691712D01*
X117870515Y-164844515D01*
X117717712Y-164969917D01*
X117543381Y-165063099D01*
X117354220Y-165120480D01*
X117157500Y-165139855D01*
X116960781Y-165120480D01*
X116771620Y-165063099D01*
X116597288Y-164969917D01*
X116444485Y-164844515D01*
X116319083Y-164691712D01*
X116225901Y-164517381D01*
X116168520Y-164328220D01*
X116154000Y-164180794D01*
X116154000Y-163987207D01*
X116168520Y-163839781D01*
X116225901Y-163650620D01*
X116225902Y-163650617D01*
X116275318Y-163558167D01*
X116319083Y-163476288D01*
X116444485Y-163323485D01*
X116597288Y-163198083D01*
X116771619Y-163104901D01*
X116960780Y-163047520D01*
X117157500Y-163028145D01*
X117354219Y-163047520D01*
X117354219Y-163047520D01*
G37*
G36*
X115621000Y-165135000D02*
G01*
X113614000Y-165135000D01*
X113614000Y-163033000D01*
X115621000Y-163033000D01*
X115621000Y-165135000D01*
X115621000Y-165135000D01*
G37*
G36*
X181551000Y-165051000D02*
G01*
X178449000Y-165051000D01*
X178449000Y-161949000D01*
X181551000Y-161949000D01*
X181551000Y-165051000D01*
X181551000Y-165051000D01*
G37*
G36*
X92196228Y-161201703D02*
G01*
X92351100Y-161265853D01*
X92490481Y-161358985D01*
X92609015Y-161477519D01*
X92702147Y-161616900D01*
X92766297Y-161771772D01*
X92799000Y-161936184D01*
X92799000Y-162103816D01*
X92766297Y-162268228D01*
X92702147Y-162423100D01*
X92609015Y-162562481D01*
X92490481Y-162681015D01*
X92351100Y-162774147D01*
X92196228Y-162838297D01*
X92031816Y-162871000D01*
X91864184Y-162871000D01*
X91699772Y-162838297D01*
X91544900Y-162774147D01*
X91405519Y-162681015D01*
X91286985Y-162562481D01*
X91193853Y-162423100D01*
X91129703Y-162268228D01*
X91097000Y-162103816D01*
X91097000Y-161936184D01*
X91129703Y-161771772D01*
X91193853Y-161616900D01*
X91286985Y-161477519D01*
X91405519Y-161358985D01*
X91544900Y-161265853D01*
X91699772Y-161201703D01*
X91864184Y-161169000D01*
X92031816Y-161169000D01*
X92196228Y-161201703D01*
X92196228Y-161201703D01*
G37*
G36*
X60895089Y-161290876D02*
G01*
X60994393Y-161310629D01*
X61134706Y-161368748D01*
X61260984Y-161453125D01*
X61368375Y-161560516D01*
X61452752Y-161686794D01*
X61510871Y-161827107D01*
X61540500Y-161976063D01*
X61540500Y-162127937D01*
X61510871Y-162276893D01*
X61452752Y-162417206D01*
X61368375Y-162543484D01*
X61260984Y-162650875D01*
X61134706Y-162735252D01*
X60994393Y-162793371D01*
X60895089Y-162813124D01*
X60845438Y-162823000D01*
X60693562Y-162823000D01*
X60643911Y-162813124D01*
X60544607Y-162793371D01*
X60404294Y-162735252D01*
X60278016Y-162650875D01*
X60170625Y-162543484D01*
X60086248Y-162417206D01*
X60028129Y-162276893D01*
X59998500Y-162127937D01*
X59998500Y-161976063D01*
X60028129Y-161827107D01*
X60086248Y-161686794D01*
X60170625Y-161560516D01*
X60278016Y-161453125D01*
X60404294Y-161368748D01*
X60544607Y-161310629D01*
X60643911Y-161290876D01*
X60693562Y-161281000D01*
X60845438Y-161281000D01*
X60895089Y-161290876D01*
X60895089Y-161290876D01*
G37*
G36*
X58355089Y-161290876D02*
G01*
X58454393Y-161310629D01*
X58594706Y-161368748D01*
X58720984Y-161453125D01*
X58828375Y-161560516D01*
X58912752Y-161686794D01*
X58970871Y-161827107D01*
X59000500Y-161976063D01*
X59000500Y-162127937D01*
X58970871Y-162276893D01*
X58912752Y-162417206D01*
X58828375Y-162543484D01*
X58720984Y-162650875D01*
X58594706Y-162735252D01*
X58454393Y-162793371D01*
X58355089Y-162813124D01*
X58305438Y-162823000D01*
X58153562Y-162823000D01*
X58103911Y-162813124D01*
X58004607Y-162793371D01*
X57864294Y-162735252D01*
X57738016Y-162650875D01*
X57630625Y-162543484D01*
X57546248Y-162417206D01*
X57488129Y-162276893D01*
X57458500Y-162127937D01*
X57458500Y-161976063D01*
X57488129Y-161827107D01*
X57546248Y-161686794D01*
X57630625Y-161560516D01*
X57738016Y-161453125D01*
X57864294Y-161368748D01*
X58004607Y-161310629D01*
X58103911Y-161290876D01*
X58153562Y-161281000D01*
X58305438Y-161281000D01*
X58355089Y-161290876D01*
X58355089Y-161290876D01*
G37*
G36*
X55815089Y-161290876D02*
G01*
X55914393Y-161310629D01*
X56054706Y-161368748D01*
X56180984Y-161453125D01*
X56288375Y-161560516D01*
X56372752Y-161686794D01*
X56430871Y-161827107D01*
X56460500Y-161976063D01*
X56460500Y-162127937D01*
X56430871Y-162276893D01*
X56372752Y-162417206D01*
X56288375Y-162543484D01*
X56180984Y-162650875D01*
X56054706Y-162735252D01*
X55914393Y-162793371D01*
X55815089Y-162813124D01*
X55765438Y-162823000D01*
X55613562Y-162823000D01*
X55563911Y-162813124D01*
X55464607Y-162793371D01*
X55324294Y-162735252D01*
X55198016Y-162650875D01*
X55090625Y-162543484D01*
X55006248Y-162417206D01*
X54948129Y-162276893D01*
X54918500Y-162127937D01*
X54918500Y-161976063D01*
X54948129Y-161827107D01*
X55006248Y-161686794D01*
X55090625Y-161560516D01*
X55198016Y-161453125D01*
X55324294Y-161368748D01*
X55464607Y-161310629D01*
X55563911Y-161290876D01*
X55613562Y-161281000D01*
X55765438Y-161281000D01*
X55815089Y-161290876D01*
X55815089Y-161290876D01*
G37*
G36*
X92799000Y-160871000D02*
G01*
X91097000Y-160871000D01*
X91097000Y-159169000D01*
X92799000Y-159169000D01*
X92799000Y-160871000D01*
X92799000Y-160871000D01*
G37*
G36*
X117106968Y-158201065D02*
G01*
X117145638Y-158212796D01*
X117181277Y-158231846D01*
X117212517Y-158257483D01*
X117238154Y-158288723D01*
X117257204Y-158324362D01*
X117268935Y-158363032D01*
X117273500Y-158409388D01*
X117273500Y-159060612D01*
X117268935Y-159106968D01*
X117257204Y-159145638D01*
X117238154Y-159181277D01*
X117212517Y-159212517D01*
X117181277Y-159238154D01*
X117145638Y-159257204D01*
X117106968Y-159268935D01*
X117060612Y-159273500D01*
X115984388Y-159273500D01*
X115938032Y-159268935D01*
X115899362Y-159257204D01*
X115863723Y-159238154D01*
X115832483Y-159212517D01*
X115806846Y-159181277D01*
X115787796Y-159145638D01*
X115776065Y-159106968D01*
X115771500Y-159060612D01*
X115771500Y-158409388D01*
X115776065Y-158363032D01*
X115787796Y-158324362D01*
X115806846Y-158288723D01*
X115832483Y-158257483D01*
X115863723Y-158231846D01*
X115899362Y-158212796D01*
X115938032Y-158201065D01*
X115984388Y-158196500D01*
X117060612Y-158196500D01*
X117106968Y-158201065D01*
X117106968Y-158201065D01*
G37*
G36*
X114820968Y-158201065D02*
G01*
X114859638Y-158212796D01*
X114895277Y-158231846D01*
X114926517Y-158257483D01*
X114952154Y-158288723D01*
X114971204Y-158324362D01*
X114982935Y-158363032D01*
X114987500Y-158409388D01*
X114987500Y-159060612D01*
X114982935Y-159106968D01*
X114971204Y-159145638D01*
X114952154Y-159181277D01*
X114926517Y-159212517D01*
X114895277Y-159238154D01*
X114859638Y-159257204D01*
X114820968Y-159268935D01*
X114774612Y-159273500D01*
X113698388Y-159273500D01*
X113652032Y-159268935D01*
X113613362Y-159257204D01*
X113577723Y-159238154D01*
X113546483Y-159212517D01*
X113520846Y-159181277D01*
X113501796Y-159145638D01*
X113490065Y-159106968D01*
X113485500Y-159060612D01*
X113485500Y-158409388D01*
X113490065Y-158363032D01*
X113501796Y-158324362D01*
X113520846Y-158288723D01*
X113546483Y-158257483D01*
X113577723Y-158231846D01*
X113613362Y-158212796D01*
X113652032Y-158201065D01*
X113698388Y-158196500D01*
X114774612Y-158196500D01*
X114820968Y-158201065D01*
X114820968Y-158201065D01*
G37*
G36*
X119910298Y-155758247D02*
G01*
X119945867Y-155769037D01*
X119978639Y-155786554D01*
X120007369Y-155810131D01*
X120030946Y-155838861D01*
X120048463Y-155871633D01*
X120059253Y-155907202D01*
X120063500Y-155950325D01*
X120063500Y-159009675D01*
X120059253Y-159052798D01*
X120048463Y-159088367D01*
X120030946Y-159121139D01*
X120007369Y-159149869D01*
X119978639Y-159173446D01*
X119945867Y-159190963D01*
X119910298Y-159201753D01*
X119867175Y-159206000D01*
X118807825Y-159206000D01*
X118764702Y-159201753D01*
X118729133Y-159190963D01*
X118696361Y-159173446D01*
X118667631Y-159149869D01*
X118644054Y-159121139D01*
X118626537Y-159088367D01*
X118615747Y-159052798D01*
X118611500Y-159009675D01*
X118611500Y-155950325D01*
X118615747Y-155907202D01*
X118626537Y-155871633D01*
X118644054Y-155838861D01*
X118667631Y-155810131D01*
X118696361Y-155786554D01*
X118729133Y-155769037D01*
X118764702Y-155758247D01*
X118807825Y-155754000D01*
X119867175Y-155754000D01*
X119910298Y-155758247D01*
X119910298Y-155758247D01*
G37*
G36*
X125710298Y-155758247D02*
G01*
X125745867Y-155769037D01*
X125778639Y-155786554D01*
X125807369Y-155810131D01*
X125830946Y-155838861D01*
X125848463Y-155871633D01*
X125859253Y-155907202D01*
X125863500Y-155950325D01*
X125863500Y-159009675D01*
X125859253Y-159052798D01*
X125848463Y-159088367D01*
X125830946Y-159121139D01*
X125807369Y-159149869D01*
X125778639Y-159173446D01*
X125745867Y-159190963D01*
X125710298Y-159201753D01*
X125667175Y-159206000D01*
X124607825Y-159206000D01*
X124564702Y-159201753D01*
X124529133Y-159190963D01*
X124496361Y-159173446D01*
X124467631Y-159149869D01*
X124444054Y-159121139D01*
X124426537Y-159088367D01*
X124415747Y-159052798D01*
X124411500Y-159009675D01*
X124411500Y-155950325D01*
X124415747Y-155907202D01*
X124426537Y-155871633D01*
X124444054Y-155838861D01*
X124467631Y-155810131D01*
X124496361Y-155786554D01*
X124529133Y-155769037D01*
X124564702Y-155758247D01*
X124607825Y-155754000D01*
X125667175Y-155754000D01*
X125710298Y-155758247D01*
X125710298Y-155758247D01*
G37*
G36*
X50952728Y-156344203D02*
G01*
X51107600Y-156408353D01*
X51246981Y-156501485D01*
X51365515Y-156620019D01*
X51458647Y-156759400D01*
X51522797Y-156914272D01*
X51555500Y-157078684D01*
X51555500Y-157246316D01*
X51522797Y-157410728D01*
X51458647Y-157565600D01*
X51365515Y-157704981D01*
X51246981Y-157823515D01*
X51107600Y-157916647D01*
X50952728Y-157980797D01*
X50788316Y-158013500D01*
X50620684Y-158013500D01*
X50456272Y-157980797D01*
X50301400Y-157916647D01*
X50162019Y-157823515D01*
X50043485Y-157704981D01*
X49950353Y-157565600D01*
X49886203Y-157410728D01*
X49853500Y-157246316D01*
X49853500Y-157078684D01*
X49886203Y-156914272D01*
X49950353Y-156759400D01*
X50043485Y-156620019D01*
X50162019Y-156501485D01*
X50301400Y-156408353D01*
X50456272Y-156344203D01*
X50620684Y-156311500D01*
X50788316Y-156311500D01*
X50952728Y-156344203D01*
X50952728Y-156344203D01*
G37*
G36*
X49555500Y-158013500D02*
G01*
X47853500Y-158013500D01*
X47853500Y-156311500D01*
X49555500Y-156311500D01*
X49555500Y-158013500D01*
X49555500Y-158013500D01*
G37*
G36*
X117106968Y-156326065D02*
G01*
X117145638Y-156337796D01*
X117181277Y-156356846D01*
X117212517Y-156382483D01*
X117238154Y-156413723D01*
X117257204Y-156449362D01*
X117268935Y-156488032D01*
X117273500Y-156534388D01*
X117273500Y-157185612D01*
X117268935Y-157231968D01*
X117257204Y-157270638D01*
X117238154Y-157306277D01*
X117212517Y-157337517D01*
X117181277Y-157363154D01*
X117145638Y-157382204D01*
X117106968Y-157393935D01*
X117060612Y-157398500D01*
X115984388Y-157398500D01*
X115938032Y-157393935D01*
X115899362Y-157382204D01*
X115863723Y-157363154D01*
X115832483Y-157337517D01*
X115806846Y-157306277D01*
X115787796Y-157270638D01*
X115776065Y-157231968D01*
X115771500Y-157185612D01*
X115771500Y-156534388D01*
X115776065Y-156488032D01*
X115787796Y-156449362D01*
X115806846Y-156413723D01*
X115832483Y-156382483D01*
X115863723Y-156356846D01*
X115899362Y-156337796D01*
X115938032Y-156326065D01*
X115984388Y-156321500D01*
X117060612Y-156321500D01*
X117106968Y-156326065D01*
X117106968Y-156326065D01*
G37*
G36*
X114820968Y-156326065D02*
G01*
X114859638Y-156337796D01*
X114895277Y-156356846D01*
X114926517Y-156382483D01*
X114952154Y-156413723D01*
X114971204Y-156449362D01*
X114982935Y-156488032D01*
X114987500Y-156534388D01*
X114987500Y-157185612D01*
X114982935Y-157231968D01*
X114971204Y-157270638D01*
X114952154Y-157306277D01*
X114926517Y-157337517D01*
X114895277Y-157363154D01*
X114859638Y-157382204D01*
X114820968Y-157393935D01*
X114774612Y-157398500D01*
X113698388Y-157398500D01*
X113652032Y-157393935D01*
X113613362Y-157382204D01*
X113577723Y-157363154D01*
X113546483Y-157337517D01*
X113520846Y-157306277D01*
X113501796Y-157270638D01*
X113490065Y-157231968D01*
X113485500Y-157185612D01*
X113485500Y-156534388D01*
X113490065Y-156488032D01*
X113501796Y-156449362D01*
X113520846Y-156413723D01*
X113546483Y-156382483D01*
X113577723Y-156356846D01*
X113613362Y-156337796D01*
X113652032Y-156326065D01*
X113698388Y-156321500D01*
X114774612Y-156321500D01*
X114820968Y-156326065D01*
X114820968Y-156326065D01*
G37*
G36*
X186925000Y-153778000D02*
G01*
X184423000Y-153778000D01*
X184423000Y-151276000D01*
X186925000Y-151276000D01*
X186925000Y-153778000D01*
X186925000Y-153778000D01*
G37*
G36*
X126929000Y-153283500D02*
G01*
X123327000Y-153283500D01*
X123327000Y-150881500D01*
X126929000Y-150881500D01*
X126929000Y-153283500D01*
X126929000Y-153283500D01*
G37*
G36*
X121529000Y-153283500D02*
G01*
X117927000Y-153283500D01*
X117927000Y-150881500D01*
X121529000Y-150881500D01*
X121529000Y-153283500D01*
X121529000Y-153283500D01*
G37*
G36*
X156038826Y-149976065D02*
G01*
X156202411Y-150008604D01*
X156484675Y-150125521D01*
X156738706Y-150295259D01*
X156954742Y-150511295D01*
X157124480Y-150765326D01*
X157241397Y-151047590D01*
X157301001Y-151347240D01*
X157301001Y-151652760D01*
X157241397Y-151952410D01*
X157124480Y-152234674D01*
X156954742Y-152488705D01*
X156738706Y-152704741D01*
X156484675Y-152874479D01*
X156202411Y-152991396D01*
X156052586Y-153021198D01*
X155902762Y-153051000D01*
X155597240Y-153051000D01*
X155447416Y-153021198D01*
X155297591Y-152991396D01*
X155015327Y-152874479D01*
X154761296Y-152704741D01*
X154545260Y-152488705D01*
X154375522Y-152234674D01*
X154258605Y-151952410D01*
X154199001Y-151652760D01*
X154199001Y-151347240D01*
X154258605Y-151047590D01*
X154375522Y-150765326D01*
X154545260Y-150511295D01*
X154761296Y-150295259D01*
X155015327Y-150125521D01*
X155297591Y-150008604D01*
X155461176Y-149976065D01*
X155597240Y-149949000D01*
X155902762Y-149949000D01*
X156038826Y-149976065D01*
X156038826Y-149976065D01*
G37*
G36*
X169838827Y-149976065D02*
G01*
X170002412Y-150008604D01*
X170284676Y-150125521D01*
X170538707Y-150295259D01*
X170754743Y-150511295D01*
X170924481Y-150765326D01*
X171041398Y-151047590D01*
X171101002Y-151347240D01*
X171101002Y-151652760D01*
X171041398Y-151952410D01*
X170924481Y-152234674D01*
X170754743Y-152488705D01*
X170538707Y-152704741D01*
X170284676Y-152874479D01*
X170002412Y-152991396D01*
X169852587Y-153021198D01*
X169702763Y-153051000D01*
X169397241Y-153051000D01*
X169247417Y-153021198D01*
X169097592Y-152991396D01*
X168815328Y-152874479D01*
X168561297Y-152704741D01*
X168345261Y-152488705D01*
X168175523Y-152234674D01*
X168058606Y-151952410D01*
X167999002Y-151652760D01*
X167999002Y-151347240D01*
X168058606Y-151047590D01*
X168175523Y-150765326D01*
X168345261Y-150511295D01*
X168561297Y-150295259D01*
X168815328Y-150125521D01*
X169097592Y-150008604D01*
X169261177Y-149976065D01*
X169397241Y-149949000D01*
X169702763Y-149949000D01*
X169838827Y-149976065D01*
X169838827Y-149976065D01*
G37*
G36*
X116916468Y-151851065D02*
G01*
X116955138Y-151862796D01*
X116990777Y-151881846D01*
X117022017Y-151907483D01*
X117047654Y-151938723D01*
X117066704Y-151974362D01*
X117078435Y-152013032D01*
X117083000Y-152059388D01*
X117083000Y-152710612D01*
X117078435Y-152756968D01*
X117066704Y-152795638D01*
X117047654Y-152831277D01*
X117022017Y-152862517D01*
X116990777Y-152888154D01*
X116955138Y-152907204D01*
X116916468Y-152918935D01*
X116870112Y-152923500D01*
X115793888Y-152923500D01*
X115747532Y-152918935D01*
X115708862Y-152907204D01*
X115673223Y-152888154D01*
X115641983Y-152862517D01*
X115616346Y-152831277D01*
X115597296Y-152795638D01*
X115585565Y-152756968D01*
X115581000Y-152710612D01*
X115581000Y-152059388D01*
X115585565Y-152013032D01*
X115597296Y-151974362D01*
X115616346Y-151938723D01*
X115641983Y-151907483D01*
X115673223Y-151881846D01*
X115708862Y-151862796D01*
X115747532Y-151851065D01*
X115793888Y-151846500D01*
X116870112Y-151846500D01*
X116916468Y-151851065D01*
X116916468Y-151851065D01*
G37*
G36*
X114630468Y-151851065D02*
G01*
X114669138Y-151862796D01*
X114704777Y-151881846D01*
X114736017Y-151907483D01*
X114761654Y-151938723D01*
X114780704Y-151974362D01*
X114792435Y-152013032D01*
X114797000Y-152059388D01*
X114797000Y-152710612D01*
X114792435Y-152756968D01*
X114780704Y-152795638D01*
X114761654Y-152831277D01*
X114736017Y-152862517D01*
X114704777Y-152888154D01*
X114669138Y-152907204D01*
X114630468Y-152918935D01*
X114584112Y-152923500D01*
X113507888Y-152923500D01*
X113461532Y-152918935D01*
X113422862Y-152907204D01*
X113387223Y-152888154D01*
X113355983Y-152862517D01*
X113330346Y-152831277D01*
X113311296Y-152795638D01*
X113299565Y-152756968D01*
X113295000Y-152710612D01*
X113295000Y-152059388D01*
X113299565Y-152013032D01*
X113311296Y-151974362D01*
X113330346Y-151938723D01*
X113355983Y-151907483D01*
X113387223Y-151881846D01*
X113422862Y-151862796D01*
X113461532Y-151851065D01*
X113507888Y-151846500D01*
X114584112Y-151846500D01*
X114630468Y-151851065D01*
X114630468Y-151851065D01*
G37*
G36*
X116916468Y-149976065D02*
G01*
X116955138Y-149987796D01*
X116990777Y-150006846D01*
X117022017Y-150032483D01*
X117047654Y-150063723D01*
X117066704Y-150099362D01*
X117078435Y-150138032D01*
X117083000Y-150184388D01*
X117083000Y-150835612D01*
X117078435Y-150881968D01*
X117066704Y-150920638D01*
X117047654Y-150956277D01*
X117022017Y-150987517D01*
X116990777Y-151013154D01*
X116955138Y-151032204D01*
X116916468Y-151043935D01*
X116870112Y-151048500D01*
X115793888Y-151048500D01*
X115747532Y-151043935D01*
X115708862Y-151032204D01*
X115673223Y-151013154D01*
X115641983Y-150987517D01*
X115616346Y-150956277D01*
X115597296Y-150920638D01*
X115585565Y-150881968D01*
X115581000Y-150835612D01*
X115581000Y-150184388D01*
X115585565Y-150138032D01*
X115597296Y-150099362D01*
X115616346Y-150063723D01*
X115641983Y-150032483D01*
X115673223Y-150006846D01*
X115708862Y-149987796D01*
X115747532Y-149976065D01*
X115793888Y-149971500D01*
X116870112Y-149971500D01*
X116916468Y-149976065D01*
X116916468Y-149976065D01*
G37*
G36*
X114630468Y-149976065D02*
G01*
X114669138Y-149987796D01*
X114704777Y-150006846D01*
X114736017Y-150032483D01*
X114761654Y-150063723D01*
X114780704Y-150099362D01*
X114792435Y-150138032D01*
X114797000Y-150184388D01*
X114797000Y-150835612D01*
X114792435Y-150881968D01*
X114780704Y-150920638D01*
X114761654Y-150956277D01*
X114736017Y-150987517D01*
X114704777Y-151013154D01*
X114669138Y-151032204D01*
X114630468Y-151043935D01*
X114584112Y-151048500D01*
X113507888Y-151048500D01*
X113461532Y-151043935D01*
X113422862Y-151032204D01*
X113387223Y-151013154D01*
X113355983Y-150987517D01*
X113330346Y-150956277D01*
X113311296Y-150920638D01*
X113299565Y-150881968D01*
X113295000Y-150835612D01*
X113295000Y-150184388D01*
X113299565Y-150138032D01*
X113311296Y-150099362D01*
X113330346Y-150063723D01*
X113355983Y-150032483D01*
X113387223Y-150006846D01*
X113422862Y-149987796D01*
X113461532Y-149976065D01*
X113507888Y-149971500D01*
X114584112Y-149971500D01*
X114630468Y-149976065D01*
X114630468Y-149976065D01*
G37*
G36*
X186038903Y-146324075D02*
G01*
X186266571Y-146418378D01*
X186471466Y-146555285D01*
X186645715Y-146729534D01*
X186782622Y-146934429D01*
X186876925Y-147162097D01*
X186925000Y-147403787D01*
X186925000Y-147650213D01*
X186876925Y-147891903D01*
X186782622Y-148119571D01*
X186645715Y-148324466D01*
X186471466Y-148498715D01*
X186266571Y-148635622D01*
X186266570Y-148635623D01*
X186266569Y-148635623D01*
X186038903Y-148729925D01*
X185797214Y-148778000D01*
X185550786Y-148778000D01*
X185309097Y-148729925D01*
X185081431Y-148635623D01*
X185081430Y-148635623D01*
X185081429Y-148635622D01*
X184876534Y-148498715D01*
X184702285Y-148324466D01*
X184565378Y-148119571D01*
X184471075Y-147891903D01*
X184423000Y-147650213D01*
X184423000Y-147403787D01*
X184471075Y-147162097D01*
X184565378Y-146934429D01*
X184702285Y-146729534D01*
X184876534Y-146555285D01*
X185081429Y-146418378D01*
X185309097Y-146324075D01*
X185550786Y-146276000D01*
X185797214Y-146276000D01*
X186038903Y-146324075D01*
X186038903Y-146324075D01*
G37*
G36*
X99580000Y-144284000D02*
G01*
X97778000Y-144284000D01*
X97778000Y-142482000D01*
X99580000Y-142482000D01*
X99580000Y-144284000D01*
X99580000Y-144284000D01*
G37*
G36*
X101329442Y-142488518D02*
G01*
X101395627Y-142495037D01*
X101565466Y-142546557D01*
X101721991Y-142630222D01*
X101757729Y-142659552D01*
X101859186Y-142742814D01*
X101942448Y-142844271D01*
X101971778Y-142880009D01*
X102055443Y-143036534D01*
X102106963Y-143206373D01*
X102124359Y-143383000D01*
X102106963Y-143559627D01*
X102055443Y-143729466D01*
X101971778Y-143885991D01*
X101942448Y-143921729D01*
X101859186Y-144023186D01*
X101757729Y-144106448D01*
X101721991Y-144135778D01*
X101565466Y-144219443D01*
X101395627Y-144270963D01*
X101329443Y-144277481D01*
X101263260Y-144284000D01*
X101174740Y-144284000D01*
X101108557Y-144277481D01*
X101042373Y-144270963D01*
X100872534Y-144219443D01*
X100716009Y-144135778D01*
X100680271Y-144106448D01*
X100578814Y-144023186D01*
X100495552Y-143921729D01*
X100466222Y-143885991D01*
X100382557Y-143729466D01*
X100331037Y-143559627D01*
X100313641Y-143383000D01*
X100331037Y-143206373D01*
X100382557Y-143036534D01*
X100466222Y-142880009D01*
X100495552Y-142844271D01*
X100578814Y-142742814D01*
X100680271Y-142659552D01*
X100716009Y-142630222D01*
X100872534Y-142546557D01*
X101042373Y-142495037D01*
X101108558Y-142488518D01*
X101174740Y-142482000D01*
X101263260Y-142482000D01*
X101329442Y-142488518D01*
X101329442Y-142488518D01*
G37*
G36*
X93863500Y-142315500D02*
G01*
X92061500Y-142315500D01*
X92061500Y-140513500D01*
X93863500Y-140513500D01*
X93863500Y-142315500D01*
X93863500Y-142315500D01*
G37*
G36*
X87992942Y-140520018D02*
G01*
X88059127Y-140526537D01*
X88228966Y-140578057D01*
X88385491Y-140661722D01*
X88421229Y-140691052D01*
X88522686Y-140774314D01*
X88605948Y-140875771D01*
X88635278Y-140911509D01*
X88718943Y-141068034D01*
X88770463Y-141237873D01*
X88787859Y-141414500D01*
X88770463Y-141591127D01*
X88718943Y-141760966D01*
X88635278Y-141917491D01*
X88605948Y-141953229D01*
X88522686Y-142054686D01*
X88421229Y-142137948D01*
X88385491Y-142167278D01*
X88228966Y-142250943D01*
X88059127Y-142302463D01*
X87992942Y-142308982D01*
X87926760Y-142315500D01*
X87838240Y-142315500D01*
X87772058Y-142308982D01*
X87705873Y-142302463D01*
X87536034Y-142250943D01*
X87379509Y-142167278D01*
X87343771Y-142137948D01*
X87242314Y-142054686D01*
X87159052Y-141953229D01*
X87129722Y-141917491D01*
X87046057Y-141760966D01*
X86994537Y-141591127D01*
X86977141Y-141414500D01*
X86994537Y-141237873D01*
X87046057Y-141068034D01*
X87129722Y-140911509D01*
X87159052Y-140875771D01*
X87242314Y-140774314D01*
X87343771Y-140691052D01*
X87379509Y-140661722D01*
X87536034Y-140578057D01*
X87705873Y-140526537D01*
X87772058Y-140520018D01*
X87838240Y-140513500D01*
X87926760Y-140513500D01*
X87992942Y-140520018D01*
X87992942Y-140520018D01*
G37*
G36*
X90532942Y-140520018D02*
G01*
X90599127Y-140526537D01*
X90768966Y-140578057D01*
X90925491Y-140661722D01*
X90961229Y-140691052D01*
X91062686Y-140774314D01*
X91145948Y-140875771D01*
X91175278Y-140911509D01*
X91258943Y-141068034D01*
X91310463Y-141237873D01*
X91327859Y-141414500D01*
X91310463Y-141591127D01*
X91258943Y-141760966D01*
X91175278Y-141917491D01*
X91145948Y-141953229D01*
X91062686Y-142054686D01*
X90961229Y-142137948D01*
X90925491Y-142167278D01*
X90768966Y-142250943D01*
X90599127Y-142302463D01*
X90532942Y-142308982D01*
X90466760Y-142315500D01*
X90378240Y-142315500D01*
X90312058Y-142308982D01*
X90245873Y-142302463D01*
X90076034Y-142250943D01*
X89919509Y-142167278D01*
X89883771Y-142137948D01*
X89782314Y-142054686D01*
X89699052Y-141953229D01*
X89669722Y-141917491D01*
X89586057Y-141760966D01*
X89534537Y-141591127D01*
X89517141Y-141414500D01*
X89534537Y-141237873D01*
X89586057Y-141068034D01*
X89669722Y-140911509D01*
X89699052Y-140875771D01*
X89782314Y-140774314D01*
X89883771Y-140691052D01*
X89919509Y-140661722D01*
X90076034Y-140578057D01*
X90245873Y-140526537D01*
X90312058Y-140520018D01*
X90378240Y-140513500D01*
X90466760Y-140513500D01*
X90532942Y-140520018D01*
X90532942Y-140520018D01*
G37*
G36*
X124662500Y-141680500D02*
G01*
X122860500Y-141680500D01*
X122860500Y-139878500D01*
X124662500Y-139878500D01*
X124662500Y-141680500D01*
X124662500Y-141680500D01*
G37*
G36*
X185975403Y-137337575D02*
G01*
X186133494Y-137403058D01*
X186203071Y-137431878D01*
X186407966Y-137568785D01*
X186582215Y-137743034D01*
X186719122Y-137947929D01*
X186813425Y-138175597D01*
X186861500Y-138417287D01*
X186861500Y-138663713D01*
X186813425Y-138905403D01*
X186719122Y-139133071D01*
X186582215Y-139337966D01*
X186407966Y-139512215D01*
X186203071Y-139649122D01*
X186203070Y-139649123D01*
X186203069Y-139649123D01*
X185975403Y-139743425D01*
X185733714Y-139791500D01*
X185487286Y-139791500D01*
X185245597Y-139743425D01*
X185017931Y-139649123D01*
X185017930Y-139649123D01*
X185017929Y-139649122D01*
X184813034Y-139512215D01*
X184638785Y-139337966D01*
X184501878Y-139133071D01*
X184407575Y-138905403D01*
X184359500Y-138663713D01*
X184359500Y-138417287D01*
X184407575Y-138175597D01*
X184501878Y-137947929D01*
X184638785Y-137743034D01*
X184813034Y-137568785D01*
X185017929Y-137431878D01*
X185087507Y-137403058D01*
X185245597Y-137337575D01*
X185487286Y-137289500D01*
X185733714Y-137289500D01*
X185975403Y-137337575D01*
X185975403Y-137337575D01*
G37*
G36*
X123871942Y-137345018D02*
G01*
X123938127Y-137351537D01*
X124107966Y-137403057D01*
X124264491Y-137486722D01*
X124300229Y-137516052D01*
X124401686Y-137599314D01*
X124484948Y-137700771D01*
X124514278Y-137736509D01*
X124597943Y-137893034D01*
X124649463Y-138062873D01*
X124666859Y-138239500D01*
X124649463Y-138416127D01*
X124597943Y-138585966D01*
X124514278Y-138742491D01*
X124484948Y-138778229D01*
X124401686Y-138879686D01*
X124300229Y-138962948D01*
X124264491Y-138992278D01*
X124107966Y-139075943D01*
X123938127Y-139127463D01*
X123881207Y-139133069D01*
X123805760Y-139140500D01*
X123717240Y-139140500D01*
X123641793Y-139133069D01*
X123584873Y-139127463D01*
X123415034Y-139075943D01*
X123258509Y-138992278D01*
X123222771Y-138962948D01*
X123121314Y-138879686D01*
X123038052Y-138778229D01*
X123008722Y-138742491D01*
X122925057Y-138585966D01*
X122873537Y-138416127D01*
X122856141Y-138239500D01*
X122873537Y-138062873D01*
X122925057Y-137893034D01*
X123008722Y-137736509D01*
X123038052Y-137700771D01*
X123121314Y-137599314D01*
X123222771Y-137516052D01*
X123258509Y-137486722D01*
X123415034Y-137403057D01*
X123584873Y-137351537D01*
X123651058Y-137345018D01*
X123717240Y-137338500D01*
X123805760Y-137338500D01*
X123871942Y-137345018D01*
X123871942Y-137345018D01*
G37*
G36*
X93072942Y-136710018D02*
G01*
X93139127Y-136716537D01*
X93308966Y-136768057D01*
X93465491Y-136851722D01*
X93501229Y-136881052D01*
X93602686Y-136964314D01*
X93685948Y-137065771D01*
X93715278Y-137101509D01*
X93798943Y-137258034D01*
X93850463Y-137427873D01*
X93867859Y-137604500D01*
X93850463Y-137781127D01*
X93798943Y-137950966D01*
X93715278Y-138107491D01*
X93685948Y-138143229D01*
X93602686Y-138244686D01*
X93501229Y-138327948D01*
X93465491Y-138357278D01*
X93308966Y-138440943D01*
X93139127Y-138492463D01*
X93072942Y-138498982D01*
X93006760Y-138505500D01*
X92918240Y-138505500D01*
X92852058Y-138498982D01*
X92785873Y-138492463D01*
X92616034Y-138440943D01*
X92459509Y-138357278D01*
X92423771Y-138327948D01*
X92322314Y-138244686D01*
X92239052Y-138143229D01*
X92209722Y-138107491D01*
X92126057Y-137950966D01*
X92074537Y-137781127D01*
X92057141Y-137604500D01*
X92074537Y-137427873D01*
X92126057Y-137258034D01*
X92209722Y-137101509D01*
X92239052Y-137065771D01*
X92322314Y-136964314D01*
X92423771Y-136881052D01*
X92459509Y-136851722D01*
X92616034Y-136768057D01*
X92785873Y-136716537D01*
X92852058Y-136710018D01*
X92918240Y-136703500D01*
X93006760Y-136703500D01*
X93072942Y-136710018D01*
X93072942Y-136710018D01*
G37*
G36*
X90532942Y-136710018D02*
G01*
X90599127Y-136716537D01*
X90768966Y-136768057D01*
X90925491Y-136851722D01*
X90961229Y-136881052D01*
X91062686Y-136964314D01*
X91145948Y-137065771D01*
X91175278Y-137101509D01*
X91258943Y-137258034D01*
X91310463Y-137427873D01*
X91327859Y-137604500D01*
X91310463Y-137781127D01*
X91258943Y-137950966D01*
X91175278Y-138107491D01*
X91145948Y-138143229D01*
X91062686Y-138244686D01*
X90961229Y-138327948D01*
X90925491Y-138357278D01*
X90768966Y-138440943D01*
X90599127Y-138492463D01*
X90532942Y-138498982D01*
X90466760Y-138505500D01*
X90378240Y-138505500D01*
X90312058Y-138498982D01*
X90245873Y-138492463D01*
X90076034Y-138440943D01*
X89919509Y-138357278D01*
X89883771Y-138327948D01*
X89782314Y-138244686D01*
X89699052Y-138143229D01*
X89669722Y-138107491D01*
X89586057Y-137950966D01*
X89534537Y-137781127D01*
X89517141Y-137604500D01*
X89534537Y-137427873D01*
X89586057Y-137258034D01*
X89669722Y-137101509D01*
X89699052Y-137065771D01*
X89782314Y-136964314D01*
X89883771Y-136881052D01*
X89919509Y-136851722D01*
X90076034Y-136768057D01*
X90245873Y-136716537D01*
X90312058Y-136710018D01*
X90378240Y-136703500D01*
X90466760Y-136703500D01*
X90532942Y-136710018D01*
X90532942Y-136710018D01*
G37*
G36*
X88783500Y-138505500D02*
G01*
X86981500Y-138505500D01*
X86981500Y-136703500D01*
X88783500Y-136703500D01*
X88783500Y-138505500D01*
X88783500Y-138505500D01*
G37*
G36*
X123871942Y-134805018D02*
G01*
X123938127Y-134811537D01*
X124107966Y-134863057D01*
X124264491Y-134946722D01*
X124300229Y-134976052D01*
X124401686Y-135059314D01*
X124484948Y-135160771D01*
X124514278Y-135196509D01*
X124597943Y-135353034D01*
X124649463Y-135522873D01*
X124666859Y-135699500D01*
X124649463Y-135876127D01*
X124597943Y-136045966D01*
X124514278Y-136202491D01*
X124484948Y-136238229D01*
X124401686Y-136339686D01*
X124300229Y-136422948D01*
X124264491Y-136452278D01*
X124107966Y-136535943D01*
X123938127Y-136587463D01*
X123871942Y-136593982D01*
X123805760Y-136600500D01*
X123717240Y-136600500D01*
X123651058Y-136593982D01*
X123584873Y-136587463D01*
X123415034Y-136535943D01*
X123258509Y-136452278D01*
X123222771Y-136422948D01*
X123121314Y-136339686D01*
X123038052Y-136238229D01*
X123008722Y-136202491D01*
X122925057Y-136045966D01*
X122873537Y-135876127D01*
X122856141Y-135699500D01*
X122873537Y-135522873D01*
X122925057Y-135353034D01*
X123008722Y-135196509D01*
X123038052Y-135160771D01*
X123121314Y-135059314D01*
X123222771Y-134976052D01*
X123258509Y-134946722D01*
X123415034Y-134863057D01*
X123584873Y-134811537D01*
X123651058Y-134805018D01*
X123717240Y-134798500D01*
X123805760Y-134798500D01*
X123871942Y-134805018D01*
X123871942Y-134805018D01*
G37*
G36*
X101218390Y-132787517D02*
G01*
X101336864Y-132836591D01*
X101346511Y-132843037D01*
X101443488Y-132907835D01*
X101534165Y-132998512D01*
X101605410Y-133105138D01*
X101654483Y-133223610D01*
X101679500Y-133349381D01*
X101679500Y-133477619D01*
X101654483Y-133603390D01*
X101605409Y-133721864D01*
X101534165Y-133828488D01*
X101443488Y-133919165D01*
X101336864Y-133990409D01*
X101218390Y-134039483D01*
X101211251Y-134040903D01*
X101187802Y-134048016D01*
X101166191Y-134059567D01*
X101147249Y-134075112D01*
X101131703Y-134094054D01*
X101120152Y-134115664D01*
X101113039Y-134139113D01*
X101110637Y-134163499D01*
X101113039Y-134187885D01*
X101120152Y-134211334D01*
X101131703Y-134232945D01*
X101147248Y-134251887D01*
X101166190Y-134267433D01*
X101187800Y-134278984D01*
X101211251Y-134286097D01*
X101218390Y-134287517D01*
X101336864Y-134336591D01*
X101443488Y-134407835D01*
X101534165Y-134498512D01*
X101580223Y-134567442D01*
X101605410Y-134605138D01*
X101654483Y-134723610D01*
X101679500Y-134849381D01*
X101679500Y-134977619D01*
X101654483Y-135103390D01*
X101615912Y-135196509D01*
X101605409Y-135221864D01*
X101534165Y-135328488D01*
X101443488Y-135419165D01*
X101336864Y-135490409D01*
X101336863Y-135490410D01*
X101336862Y-135490410D01*
X101218390Y-135539483D01*
X101092619Y-135564500D01*
X100964381Y-135564500D01*
X100838610Y-135539483D01*
X100720138Y-135490410D01*
X100720137Y-135490410D01*
X100720136Y-135490409D01*
X100613512Y-135419165D01*
X100522835Y-135328488D01*
X100451591Y-135221864D01*
X100441089Y-135196509D01*
X100402517Y-135103390D01*
X100377500Y-134977619D01*
X100377500Y-134849381D01*
X100402517Y-134723610D01*
X100451590Y-134605138D01*
X100476778Y-134567442D01*
X100522835Y-134498512D01*
X100613512Y-134407835D01*
X100720136Y-134336591D01*
X100838610Y-134287517D01*
X100845749Y-134286097D01*
X100869198Y-134278984D01*
X100890809Y-134267433D01*
X100909751Y-134251888D01*
X100925297Y-134232946D01*
X100936848Y-134211336D01*
X100943961Y-134187887D01*
X100946363Y-134163501D01*
X100943961Y-134139115D01*
X100936848Y-134115666D01*
X100925297Y-134094055D01*
X100909752Y-134075113D01*
X100890810Y-134059567D01*
X100869200Y-134048016D01*
X100845749Y-134040903D01*
X100838610Y-134039483D01*
X100720136Y-133990409D01*
X100613512Y-133919165D01*
X100522835Y-133828488D01*
X100451591Y-133721864D01*
X100402517Y-133603390D01*
X100377500Y-133477619D01*
X100377500Y-133349381D01*
X100402517Y-133223610D01*
X100451590Y-133105138D01*
X100522835Y-132998512D01*
X100613512Y-132907835D01*
X100710489Y-132843037D01*
X100720136Y-132836591D01*
X100838610Y-132787517D01*
X100964381Y-132762500D01*
X101092619Y-132762500D01*
X101218390Y-132787517D01*
X101218390Y-132787517D01*
G37*
G36*
X186861500Y-134791500D02*
G01*
X184359500Y-134791500D01*
X184359500Y-132289500D01*
X186861500Y-132289500D01*
X186861500Y-134791500D01*
X186861500Y-134791500D01*
G37*
G36*
X91232943Y-132836519D02*
G01*
X91299127Y-132843037D01*
X91468966Y-132894557D01*
X91625491Y-132978222D01*
X91650214Y-132998512D01*
X91762686Y-133090814D01*
X91845948Y-133192271D01*
X91875278Y-133228009D01*
X91958943Y-133384534D01*
X92010463Y-133554373D01*
X92027859Y-133731000D01*
X92010463Y-133907627D01*
X91958943Y-134077466D01*
X91958942Y-134077468D01*
X91950076Y-134094055D01*
X91875278Y-134233991D01*
X91860591Y-134251887D01*
X91762686Y-134371186D01*
X91661229Y-134454448D01*
X91625491Y-134483778D01*
X91468966Y-134567443D01*
X91299127Y-134618963D01*
X91232942Y-134625482D01*
X91166760Y-134632000D01*
X91078240Y-134632000D01*
X91012058Y-134625482D01*
X90945873Y-134618963D01*
X90776034Y-134567443D01*
X90619509Y-134483778D01*
X90583771Y-134454448D01*
X90482314Y-134371186D01*
X90384409Y-134251887D01*
X90369722Y-134233991D01*
X90294924Y-134094055D01*
X90286058Y-134077468D01*
X90286057Y-134077466D01*
X90234537Y-133907627D01*
X90217141Y-133731000D01*
X90234537Y-133554373D01*
X90286057Y-133384534D01*
X90369722Y-133228009D01*
X90399052Y-133192271D01*
X90482314Y-133090814D01*
X90594786Y-132998512D01*
X90619509Y-132978222D01*
X90776034Y-132894557D01*
X90945873Y-132843037D01*
X91012057Y-132836519D01*
X91078240Y-132830000D01*
X91166760Y-132830000D01*
X91232943Y-132836519D01*
X91232943Y-132836519D01*
G37*
G36*
X89483500Y-134632000D02*
G01*
X87681500Y-134632000D01*
X87681500Y-132830000D01*
X89483500Y-132830000D01*
X89483500Y-134632000D01*
X89483500Y-134632000D01*
G37*
G36*
X81101500Y-130758500D02*
G01*
X79299500Y-130758500D01*
X79299500Y-128956500D01*
X81101500Y-128956500D01*
X81101500Y-130758500D01*
X81101500Y-130758500D01*
G37*
G36*
X77770943Y-128963019D02*
G01*
X77837127Y-128969537D01*
X78006966Y-129021057D01*
X78163491Y-129104722D01*
X78199229Y-129134052D01*
X78300686Y-129217314D01*
X78383948Y-129318771D01*
X78413278Y-129354509D01*
X78413279Y-129354511D01*
X78485901Y-129490375D01*
X78496943Y-129511034D01*
X78548463Y-129680873D01*
X78565859Y-129857500D01*
X78548463Y-130034127D01*
X78496943Y-130203966D01*
X78413278Y-130360491D01*
X78383948Y-130396229D01*
X78300686Y-130497686D01*
X78215007Y-130568000D01*
X78163491Y-130610278D01*
X78006966Y-130693943D01*
X77837127Y-130745463D01*
X77770943Y-130751981D01*
X77704760Y-130758500D01*
X77616240Y-130758500D01*
X77550057Y-130751981D01*
X77483873Y-130745463D01*
X77314034Y-130693943D01*
X77157509Y-130610278D01*
X77105993Y-130568000D01*
X77020314Y-130497686D01*
X76937052Y-130396229D01*
X76907722Y-130360491D01*
X76824057Y-130203966D01*
X76772537Y-130034127D01*
X76755141Y-129857500D01*
X76772537Y-129680873D01*
X76824057Y-129511034D01*
X76835100Y-129490375D01*
X76907721Y-129354511D01*
X76907722Y-129354509D01*
X76937052Y-129318771D01*
X77020314Y-129217314D01*
X77121771Y-129134052D01*
X77157509Y-129104722D01*
X77314034Y-129021057D01*
X77483873Y-128969537D01*
X77550057Y-128963019D01*
X77616240Y-128956500D01*
X77704760Y-128956500D01*
X77770943Y-128963019D01*
X77770943Y-128963019D01*
G37*
G36*
X103615442Y-128772518D02*
G01*
X103681627Y-128779037D01*
X103851466Y-128830557D01*
X104007991Y-128914222D01*
X104043729Y-128943552D01*
X104145186Y-129026814D01*
X104209122Y-129104722D01*
X104257778Y-129164009D01*
X104341443Y-129320534D01*
X104392963Y-129490373D01*
X104410359Y-129667000D01*
X104392963Y-129843627D01*
X104341443Y-130013466D01*
X104341442Y-130013468D01*
X104330399Y-130034127D01*
X104257778Y-130169991D01*
X104229895Y-130203966D01*
X104145186Y-130307186D01*
X104043729Y-130390448D01*
X104007991Y-130419778D01*
X103851466Y-130503443D01*
X103681627Y-130554963D01*
X103615443Y-130561481D01*
X103549260Y-130568000D01*
X103460740Y-130568000D01*
X103394557Y-130561481D01*
X103328373Y-130554963D01*
X103158534Y-130503443D01*
X103002009Y-130419778D01*
X102966271Y-130390448D01*
X102864814Y-130307186D01*
X102780105Y-130203966D01*
X102752222Y-130169991D01*
X102679601Y-130034127D01*
X102668558Y-130013468D01*
X102668557Y-130013466D01*
X102617037Y-129843627D01*
X102599641Y-129667000D01*
X102617037Y-129490373D01*
X102668557Y-129320534D01*
X102752222Y-129164009D01*
X102800878Y-129104722D01*
X102864814Y-129026814D01*
X102966271Y-128943552D01*
X103002009Y-128914222D01*
X103158534Y-128830557D01*
X103328373Y-128779037D01*
X103394558Y-128772518D01*
X103460740Y-128766000D01*
X103549260Y-128766000D01*
X103615442Y-128772518D01*
X103615442Y-128772518D01*
G37*
G36*
X101866000Y-130568000D02*
G01*
X100064000Y-130568000D01*
X100064000Y-128766000D01*
X101866000Y-128766000D01*
X101866000Y-130568000D01*
X101866000Y-130568000D01*
G37*
G36*
X123300442Y-128709018D02*
G01*
X123366627Y-128715537D01*
X123536466Y-128767057D01*
X123692991Y-128850722D01*
X123728729Y-128880052D01*
X123830186Y-128963314D01*
X123913448Y-129064771D01*
X123942778Y-129100509D01*
X124026443Y-129257034D01*
X124077963Y-129426873D01*
X124095359Y-129603500D01*
X124077963Y-129780127D01*
X124026443Y-129949966D01*
X123942778Y-130106491D01*
X123935856Y-130114925D01*
X123830186Y-130243686D01*
X123728729Y-130326948D01*
X123692991Y-130356278D01*
X123536466Y-130439943D01*
X123366627Y-130491463D01*
X123303453Y-130497685D01*
X123234260Y-130504500D01*
X123145740Y-130504500D01*
X123076547Y-130497685D01*
X123013373Y-130491463D01*
X122843534Y-130439943D01*
X122687009Y-130356278D01*
X122651271Y-130326948D01*
X122549814Y-130243686D01*
X122444144Y-130114925D01*
X122437222Y-130106491D01*
X122353557Y-129949966D01*
X122302037Y-129780127D01*
X122284641Y-129603500D01*
X122302037Y-129426873D01*
X122353557Y-129257034D01*
X122437222Y-129100509D01*
X122466552Y-129064771D01*
X122549814Y-128963314D01*
X122651271Y-128880052D01*
X122687009Y-128850722D01*
X122843534Y-128767057D01*
X123013373Y-128715537D01*
X123079558Y-128709018D01*
X123145740Y-128702500D01*
X123234260Y-128702500D01*
X123300442Y-128709018D01*
X123300442Y-128709018D01*
G37*
G36*
X121551000Y-130504500D02*
G01*
X119749000Y-130504500D01*
X119749000Y-128702500D01*
X121551000Y-128702500D01*
X121551000Y-130504500D01*
X121551000Y-130504500D01*
G37*
G36*
X165427519Y-127676377D02*
G01*
X165591903Y-127709075D01*
X165819571Y-127803378D01*
X166024466Y-127940285D01*
X166198715Y-128114534D01*
X166198716Y-128114536D01*
X166335623Y-128319431D01*
X166429925Y-128547097D01*
X166478000Y-128788786D01*
X166478000Y-129035214D01*
X166429925Y-129276903D01*
X166411853Y-129320534D01*
X166335622Y-129504571D01*
X166198715Y-129709466D01*
X166024466Y-129883715D01*
X165819571Y-130020622D01*
X165819570Y-130020623D01*
X165819569Y-130020623D01*
X165591903Y-130114925D01*
X165350214Y-130163000D01*
X165103786Y-130163000D01*
X164862097Y-130114925D01*
X164634431Y-130020623D01*
X164634430Y-130020623D01*
X164634429Y-130020622D01*
X164429534Y-129883715D01*
X164255285Y-129709466D01*
X164118378Y-129504571D01*
X164042148Y-129320534D01*
X164024075Y-129276903D01*
X163976000Y-129035214D01*
X163976000Y-128788786D01*
X164024075Y-128547097D01*
X164118377Y-128319431D01*
X164255284Y-128114536D01*
X164255285Y-128114534D01*
X164429534Y-127940285D01*
X164634429Y-127803378D01*
X164862097Y-127709075D01*
X165026481Y-127676377D01*
X165103786Y-127661000D01*
X165350214Y-127661000D01*
X165427519Y-127676377D01*
X165427519Y-127676377D01*
G37*
G36*
X145779903Y-127582075D02*
G01*
X145970446Y-127661000D01*
X146007571Y-127676378D01*
X146212466Y-127813285D01*
X146386715Y-127987534D01*
X146386716Y-127987536D01*
X146523623Y-128192431D01*
X146617925Y-128420097D01*
X146666000Y-128661786D01*
X146666000Y-128908214D01*
X146617925Y-129149903D01*
X146547248Y-129320534D01*
X146523622Y-129377571D01*
X146386715Y-129582466D01*
X146212466Y-129756715D01*
X146007571Y-129893622D01*
X146007570Y-129893623D01*
X146007569Y-129893623D01*
X145779903Y-129987925D01*
X145538214Y-130036000D01*
X145291786Y-130036000D01*
X145050097Y-129987925D01*
X144822431Y-129893623D01*
X144822430Y-129893623D01*
X144822429Y-129893622D01*
X144617534Y-129756715D01*
X144443285Y-129582466D01*
X144306378Y-129377571D01*
X144282753Y-129320534D01*
X144212075Y-129149903D01*
X144164000Y-128908214D01*
X144164000Y-128661786D01*
X144212075Y-128420097D01*
X144306377Y-128192431D01*
X144443284Y-127987536D01*
X144443285Y-127987534D01*
X144617534Y-127813285D01*
X144822429Y-127676378D01*
X144859555Y-127661000D01*
X145050097Y-127582075D01*
X145291786Y-127534000D01*
X145538214Y-127534000D01*
X145779903Y-127582075D01*
X145779903Y-127582075D01*
G37*
G36*
X73976089Y-123063876D02*
G01*
X74075393Y-123083629D01*
X74215706Y-123141748D01*
X74341984Y-123226125D01*
X74449375Y-123333516D01*
X74533752Y-123459794D01*
X74591871Y-123600107D01*
X74591871Y-123600109D01*
X74621500Y-123749062D01*
X74621500Y-123900938D01*
X74613829Y-123939500D01*
X74591871Y-124049893D01*
X74533752Y-124190206D01*
X74449375Y-124316484D01*
X74341984Y-124423875D01*
X74215706Y-124508252D01*
X74075393Y-124566371D01*
X73976089Y-124586124D01*
X73926438Y-124596000D01*
X73774562Y-124596000D01*
X73724911Y-124586124D01*
X73625607Y-124566371D01*
X73485294Y-124508252D01*
X73359016Y-124423875D01*
X73251625Y-124316484D01*
X73167248Y-124190206D01*
X73109129Y-124049893D01*
X73087171Y-123939500D01*
X73079500Y-123900938D01*
X73079500Y-123749062D01*
X73109129Y-123600109D01*
X73109129Y-123600107D01*
X73167248Y-123459794D01*
X73251625Y-123333516D01*
X73359016Y-123226125D01*
X73485294Y-123141748D01*
X73625607Y-123083629D01*
X73724911Y-123063876D01*
X73774562Y-123054000D01*
X73926438Y-123054000D01*
X73976089Y-123063876D01*
X73976089Y-123063876D01*
G37*
G36*
X120795936Y-122000840D02*
G01*
X120894220Y-122010520D01*
X121083381Y-122067901D01*
X121257712Y-122161083D01*
X121410515Y-122286485D01*
X121535917Y-122439288D01*
X121629099Y-122613619D01*
X121686480Y-122802780D01*
X121705855Y-122999500D01*
X121686480Y-123196220D01*
X121629099Y-123385381D01*
X121535917Y-123559712D01*
X121410515Y-123712515D01*
X121257712Y-123837917D01*
X121083381Y-123931099D01*
X120894220Y-123988480D01*
X120795936Y-123998160D01*
X120746795Y-124003000D01*
X120553205Y-124003000D01*
X120504064Y-123998160D01*
X120405780Y-123988480D01*
X120216619Y-123931099D01*
X120042288Y-123837917D01*
X119889485Y-123712515D01*
X119764083Y-123559712D01*
X119670901Y-123385381D01*
X119613520Y-123196220D01*
X119594145Y-122999500D01*
X119613520Y-122802780D01*
X119670901Y-122613619D01*
X119764083Y-122439288D01*
X119889485Y-122286485D01*
X120042288Y-122161083D01*
X120216619Y-122067901D01*
X120405780Y-122010520D01*
X120504064Y-122000840D01*
X120553205Y-121996000D01*
X120746795Y-121996000D01*
X120795936Y-122000840D01*
X120795936Y-122000840D01*
G37*
G36*
X104920936Y-121937340D02*
G01*
X105019220Y-121947020D01*
X105208381Y-122004401D01*
X105382712Y-122097583D01*
X105535515Y-122222985D01*
X105660917Y-122375788D01*
X105754099Y-122550119D01*
X105811480Y-122739280D01*
X105830855Y-122936000D01*
X105811480Y-123132720D01*
X105754099Y-123321881D01*
X105660917Y-123496212D01*
X105535515Y-123649015D01*
X105382712Y-123774417D01*
X105208381Y-123867599D01*
X105019220Y-123924980D01*
X104920936Y-123934660D01*
X104871795Y-123939500D01*
X104678205Y-123939500D01*
X104629064Y-123934660D01*
X104530780Y-123924980D01*
X104341619Y-123867599D01*
X104167288Y-123774417D01*
X104014485Y-123649015D01*
X103889083Y-123496212D01*
X103795901Y-123321881D01*
X103738520Y-123132720D01*
X103719145Y-122936000D01*
X103738520Y-122739280D01*
X103795901Y-122550119D01*
X103889083Y-122375788D01*
X104014485Y-122222985D01*
X104167288Y-122097583D01*
X104341619Y-122004401D01*
X104530780Y-121947020D01*
X104629064Y-121937340D01*
X104678205Y-121932500D01*
X104871795Y-121932500D01*
X104920936Y-121937340D01*
X104920936Y-121937340D01*
G37*
G36*
X95903936Y-121937340D02*
G01*
X96002220Y-121947020D01*
X96191381Y-122004401D01*
X96365712Y-122097583D01*
X96518515Y-122222985D01*
X96643917Y-122375788D01*
X96737099Y-122550119D01*
X96794480Y-122739280D01*
X96813855Y-122936000D01*
X96794480Y-123132720D01*
X96737099Y-123321881D01*
X96643917Y-123496212D01*
X96518515Y-123649015D01*
X96365712Y-123774417D01*
X96191381Y-123867599D01*
X96002220Y-123924980D01*
X95903936Y-123934660D01*
X95854795Y-123939500D01*
X95661205Y-123939500D01*
X95612064Y-123934660D01*
X95513780Y-123924980D01*
X95324619Y-123867599D01*
X95150288Y-123774417D01*
X94997485Y-123649015D01*
X94872083Y-123496212D01*
X94778901Y-123321881D01*
X94721520Y-123132720D01*
X94702145Y-122936000D01*
X94721520Y-122739280D01*
X94778901Y-122550119D01*
X94872083Y-122375788D01*
X94997485Y-122222985D01*
X95150288Y-122097583D01*
X95324619Y-122004401D01*
X95513780Y-121947020D01*
X95612064Y-121937340D01*
X95661205Y-121932500D01*
X95854795Y-121932500D01*
X95903936Y-121937340D01*
X95903936Y-121937340D01*
G37*
G36*
X166478000Y-122663000D02*
G01*
X163976000Y-122663000D01*
X163976000Y-120161000D01*
X166478000Y-120161000D01*
X166478000Y-122663000D01*
X166478000Y-122663000D01*
G37*
G36*
X146666000Y-122536000D02*
G01*
X144164000Y-122536000D01*
X144164000Y-120034000D01*
X146666000Y-120034000D01*
X146666000Y-122536000D01*
X146666000Y-122536000D01*
G37*
G36*
X73976089Y-120523876D02*
G01*
X74075393Y-120543629D01*
X74215706Y-120601748D01*
X74341984Y-120686125D01*
X74449375Y-120793516D01*
X74533752Y-120919794D01*
X74591871Y-121060107D01*
X74601599Y-121109015D01*
X74621500Y-121209062D01*
X74621500Y-121360938D01*
X74613829Y-121399500D01*
X74591871Y-121509893D01*
X74533752Y-121650206D01*
X74449375Y-121776484D01*
X74341984Y-121883875D01*
X74215706Y-121968252D01*
X74075393Y-122026371D01*
X73976089Y-122046124D01*
X73926438Y-122056000D01*
X73774562Y-122056000D01*
X73724911Y-122046124D01*
X73625607Y-122026371D01*
X73485294Y-121968252D01*
X73359016Y-121883875D01*
X73251625Y-121776484D01*
X73167248Y-121650206D01*
X73109129Y-121509893D01*
X73087171Y-121399500D01*
X73079500Y-121360938D01*
X73079500Y-121209062D01*
X73099401Y-121109015D01*
X73109129Y-121060107D01*
X73167248Y-120919794D01*
X73251625Y-120793516D01*
X73359016Y-120686125D01*
X73485294Y-120601748D01*
X73625607Y-120543629D01*
X73724911Y-120523876D01*
X73774562Y-120514000D01*
X73926438Y-120514000D01*
X73976089Y-120523876D01*
X73976089Y-120523876D01*
G37*
G36*
X180642585Y-118811302D02*
G01*
X180792410Y-118841104D01*
X181074674Y-118958021D01*
X181328705Y-119127759D01*
X181544741Y-119343795D01*
X181714479Y-119597826D01*
X181813046Y-119835789D01*
X181831396Y-119880091D01*
X181887273Y-120161000D01*
X181891000Y-120179740D01*
X181891000Y-120485260D01*
X181831396Y-120784910D01*
X181714479Y-121067174D01*
X181544741Y-121321205D01*
X181328705Y-121537241D01*
X181074674Y-121706979D01*
X180792410Y-121823896D01*
X180642585Y-121853698D01*
X180492761Y-121883500D01*
X180187239Y-121883500D01*
X180037415Y-121853698D01*
X179887590Y-121823896D01*
X179605326Y-121706979D01*
X179351295Y-121537241D01*
X179135259Y-121321205D01*
X178965521Y-121067174D01*
X178848604Y-120784910D01*
X178789000Y-120485260D01*
X178789000Y-120179740D01*
X178792728Y-120161000D01*
X178848604Y-119880091D01*
X178866954Y-119835789D01*
X178965521Y-119597826D01*
X179135259Y-119343795D01*
X179351295Y-119127759D01*
X179605326Y-118958021D01*
X179887590Y-118841104D01*
X180037415Y-118811302D01*
X180187239Y-118781500D01*
X180492761Y-118781500D01*
X180642585Y-118811302D01*
X180642585Y-118811302D01*
G37*
G36*
X120795936Y-119460840D02*
G01*
X120894220Y-119470520D01*
X121083381Y-119527901D01*
X121257712Y-119621083D01*
X121410515Y-119746485D01*
X121535917Y-119899288D01*
X121629099Y-120073619D01*
X121686480Y-120262780D01*
X121705855Y-120459500D01*
X121686480Y-120656220D01*
X121629099Y-120845381D01*
X121535917Y-121019712D01*
X121410515Y-121172515D01*
X121257712Y-121297917D01*
X121083381Y-121391099D01*
X120894220Y-121448480D01*
X120795936Y-121458160D01*
X120746795Y-121463000D01*
X120553205Y-121463000D01*
X120504064Y-121458160D01*
X120405780Y-121448480D01*
X120216619Y-121391099D01*
X120042288Y-121297917D01*
X119889485Y-121172515D01*
X119764083Y-121019712D01*
X119670901Y-120845381D01*
X119613520Y-120656220D01*
X119594145Y-120459500D01*
X119613520Y-120262780D01*
X119670901Y-120073619D01*
X119764083Y-119899288D01*
X119889485Y-119746485D01*
X120042288Y-119621083D01*
X120216619Y-119527901D01*
X120405780Y-119470520D01*
X120504064Y-119460840D01*
X120553205Y-119456000D01*
X120746795Y-119456000D01*
X120795936Y-119460840D01*
X120795936Y-119460840D01*
G37*
G36*
X104920936Y-119397340D02*
G01*
X105019220Y-119407020D01*
X105208381Y-119464401D01*
X105382712Y-119557583D01*
X105535515Y-119682985D01*
X105660917Y-119835788D01*
X105754099Y-120010119D01*
X105811480Y-120199280D01*
X105830855Y-120396000D01*
X105811480Y-120592720D01*
X105783146Y-120686125D01*
X105754098Y-120781883D01*
X105752480Y-120784910D01*
X105660917Y-120956212D01*
X105535515Y-121109015D01*
X105382712Y-121234417D01*
X105208381Y-121327599D01*
X105019220Y-121384980D01*
X104920936Y-121394660D01*
X104871795Y-121399500D01*
X104678205Y-121399500D01*
X104629064Y-121394660D01*
X104530780Y-121384980D01*
X104341619Y-121327599D01*
X104167288Y-121234417D01*
X104014485Y-121109015D01*
X103889083Y-120956212D01*
X103797520Y-120784910D01*
X103795902Y-120781883D01*
X103766854Y-120686125D01*
X103738520Y-120592720D01*
X103719145Y-120396000D01*
X103738520Y-120199280D01*
X103795901Y-120010119D01*
X103889083Y-119835788D01*
X104014485Y-119682985D01*
X104167288Y-119557583D01*
X104341619Y-119464401D01*
X104530780Y-119407020D01*
X104629064Y-119397340D01*
X104678205Y-119392500D01*
X104871795Y-119392500D01*
X104920936Y-119397340D01*
X104920936Y-119397340D01*
G37*
G36*
X95903936Y-119397340D02*
G01*
X96002220Y-119407020D01*
X96191381Y-119464401D01*
X96365712Y-119557583D01*
X96518515Y-119682985D01*
X96643917Y-119835788D01*
X96737099Y-120010119D01*
X96794480Y-120199280D01*
X96813855Y-120396000D01*
X96794480Y-120592720D01*
X96766146Y-120686125D01*
X96737098Y-120781883D01*
X96735480Y-120784910D01*
X96643917Y-120956212D01*
X96518515Y-121109015D01*
X96365712Y-121234417D01*
X96191381Y-121327599D01*
X96002220Y-121384980D01*
X95903936Y-121394660D01*
X95854795Y-121399500D01*
X95661205Y-121399500D01*
X95612064Y-121394660D01*
X95513780Y-121384980D01*
X95324619Y-121327599D01*
X95150288Y-121234417D01*
X94997485Y-121109015D01*
X94872083Y-120956212D01*
X94780520Y-120784910D01*
X94778902Y-120781883D01*
X94749854Y-120686125D01*
X94721520Y-120592720D01*
X94702145Y-120396000D01*
X94721520Y-120199280D01*
X94778901Y-120010119D01*
X94872083Y-119835788D01*
X94997485Y-119682985D01*
X95150288Y-119557583D01*
X95324619Y-119464401D01*
X95513780Y-119407020D01*
X95612064Y-119397340D01*
X95661205Y-119392500D01*
X95854795Y-119392500D01*
X95903936Y-119397340D01*
X95903936Y-119397340D01*
G37*
G36*
X73976089Y-117983876D02*
G01*
X74075393Y-118003629D01*
X74215706Y-118061748D01*
X74341984Y-118146125D01*
X74449375Y-118253516D01*
X74533752Y-118379794D01*
X74591871Y-118520107D01*
X74621500Y-118669063D01*
X74621500Y-118820937D01*
X74591871Y-118969893D01*
X74533752Y-119110206D01*
X74449375Y-119236484D01*
X74341984Y-119343875D01*
X74215706Y-119428252D01*
X74075393Y-119486371D01*
X73976089Y-119506124D01*
X73926438Y-119516000D01*
X73774562Y-119516000D01*
X73724911Y-119506124D01*
X73625607Y-119486371D01*
X73485294Y-119428252D01*
X73359016Y-119343875D01*
X73251625Y-119236484D01*
X73167248Y-119110206D01*
X73109129Y-118969893D01*
X73079500Y-118820937D01*
X73079500Y-118669063D01*
X73109129Y-118520107D01*
X73167248Y-118379794D01*
X73251625Y-118253516D01*
X73359016Y-118146125D01*
X73485294Y-118061748D01*
X73625607Y-118003629D01*
X73724911Y-117983876D01*
X73774562Y-117974000D01*
X73926438Y-117974000D01*
X73976089Y-117983876D01*
X73976089Y-117983876D01*
G37*
G36*
X121701000Y-118923000D02*
G01*
X119599000Y-118923000D01*
X119599000Y-116916000D01*
X121701000Y-116916000D01*
X121701000Y-118923000D01*
X121701000Y-118923000D01*
G37*
G36*
X105826000Y-118859500D02*
G01*
X103724000Y-118859500D01*
X103724000Y-116852500D01*
X105826000Y-116852500D01*
X105826000Y-118859500D01*
X105826000Y-118859500D01*
G37*
G36*
X96809000Y-118859500D02*
G01*
X94707000Y-118859500D01*
X94707000Y-116852500D01*
X96809000Y-116852500D01*
X96809000Y-118859500D01*
X96809000Y-118859500D01*
G37*
G36*
X68689890Y-115974017D02*
G01*
X68808364Y-116023091D01*
X68914988Y-116094335D01*
X69005665Y-116185012D01*
X69076909Y-116291636D01*
X69125983Y-116410110D01*
X69151000Y-116535882D01*
X69151000Y-116664118D01*
X69125983Y-116789890D01*
X69076909Y-116908364D01*
X69005665Y-117014988D01*
X68914988Y-117105665D01*
X68808364Y-117176909D01*
X68808363Y-117176910D01*
X68808362Y-117176910D01*
X68732056Y-117208517D01*
X68710445Y-117220068D01*
X68691503Y-117235613D01*
X68675958Y-117254555D01*
X68664407Y-117276166D01*
X68657294Y-117299615D01*
X68654892Y-117324001D01*
X68657294Y-117348387D01*
X68664407Y-117371836D01*
X68675958Y-117393447D01*
X68691503Y-117412389D01*
X68710445Y-117427934D01*
X68732056Y-117439485D01*
X68755505Y-117446598D01*
X68779891Y-117449000D01*
X69151000Y-117449000D01*
X69151000Y-118751000D01*
X67849000Y-118751000D01*
X67849000Y-117449000D01*
X68220109Y-117449000D01*
X68244495Y-117446598D01*
X68267944Y-117439485D01*
X68289555Y-117427934D01*
X68308497Y-117412389D01*
X68324042Y-117393447D01*
X68335593Y-117371836D01*
X68342706Y-117348387D01*
X68345108Y-117324001D01*
X68342706Y-117299615D01*
X68335593Y-117276166D01*
X68324042Y-117254555D01*
X68308497Y-117235613D01*
X68289555Y-117220068D01*
X68267944Y-117208517D01*
X68191638Y-117176910D01*
X68191637Y-117176910D01*
X68191636Y-117176909D01*
X68085012Y-117105665D01*
X67994335Y-117014988D01*
X67923091Y-116908364D01*
X67874017Y-116789890D01*
X67849000Y-116664118D01*
X67849000Y-116535882D01*
X67874017Y-116410110D01*
X67923091Y-116291636D01*
X67994335Y-116185012D01*
X68085012Y-116094335D01*
X68191636Y-116023091D01*
X68310110Y-115974017D01*
X68435881Y-115949000D01*
X68564119Y-115949000D01*
X68689890Y-115974017D01*
X68689890Y-115974017D01*
G37*
G36*
X180642585Y-113731302D02*
G01*
X180792410Y-113761104D01*
X181074674Y-113878021D01*
X181328705Y-114047759D01*
X181544741Y-114263795D01*
X181714479Y-114517826D01*
X181831396Y-114800090D01*
X181891000Y-115099740D01*
X181891000Y-115405260D01*
X181831396Y-115704910D01*
X181714479Y-115987174D01*
X181544741Y-116241205D01*
X181328705Y-116457241D01*
X181074674Y-116626979D01*
X180792410Y-116743896D01*
X180642585Y-116773698D01*
X180492761Y-116803500D01*
X180187239Y-116803500D01*
X180037415Y-116773698D01*
X179887590Y-116743896D01*
X179605326Y-116626979D01*
X179351295Y-116457241D01*
X179135259Y-116241205D01*
X178965521Y-115987174D01*
X178848604Y-115704910D01*
X178789000Y-115405260D01*
X178789000Y-115099740D01*
X178848604Y-114800090D01*
X178965521Y-114517826D01*
X179135259Y-114263795D01*
X179351295Y-114047759D01*
X179605326Y-113878021D01*
X179887590Y-113761104D01*
X180037415Y-113731302D01*
X180187239Y-113701500D01*
X180492761Y-113701500D01*
X180642585Y-113731302D01*
X180642585Y-113731302D01*
G37*
G36*
X89783228Y-114378203D02*
G01*
X89938100Y-114442353D01*
X90077481Y-114535485D01*
X90196015Y-114654019D01*
X90289147Y-114793400D01*
X90353297Y-114948272D01*
X90386000Y-115112684D01*
X90386000Y-115280316D01*
X90353297Y-115444728D01*
X90289147Y-115599600D01*
X90196015Y-115738981D01*
X90077481Y-115857515D01*
X89938100Y-115950647D01*
X89783228Y-116014797D01*
X89618816Y-116047500D01*
X89451184Y-116047500D01*
X89286772Y-116014797D01*
X89131900Y-115950647D01*
X88992519Y-115857515D01*
X88873985Y-115738981D01*
X88780853Y-115599600D01*
X88716703Y-115444728D01*
X88684000Y-115280316D01*
X88684000Y-115112684D01*
X88716703Y-114948272D01*
X88780853Y-114793400D01*
X88873985Y-114654019D01*
X88992519Y-114535485D01*
X89131900Y-114442353D01*
X89286772Y-114378203D01*
X89451184Y-114345500D01*
X89618816Y-114345500D01*
X89783228Y-114378203D01*
X89783228Y-114378203D01*
G37*
G36*
X130677228Y-114314703D02*
G01*
X130832100Y-114378853D01*
X130971481Y-114471985D01*
X131090015Y-114590519D01*
X131183147Y-114729900D01*
X131247297Y-114884772D01*
X131280000Y-115049184D01*
X131280000Y-115216816D01*
X131247297Y-115381228D01*
X131183147Y-115536100D01*
X131090015Y-115675481D01*
X130971481Y-115794015D01*
X130832100Y-115887147D01*
X130677228Y-115951297D01*
X130512816Y-115984000D01*
X130345184Y-115984000D01*
X130180772Y-115951297D01*
X130025900Y-115887147D01*
X129886519Y-115794015D01*
X129767985Y-115675481D01*
X129674853Y-115536100D01*
X129610703Y-115381228D01*
X129578000Y-115216816D01*
X129578000Y-115049184D01*
X129610703Y-114884772D01*
X129674853Y-114729900D01*
X129767985Y-114590519D01*
X129886519Y-114471985D01*
X130025900Y-114378853D01*
X130180772Y-114314703D01*
X130345184Y-114282000D01*
X130512816Y-114282000D01*
X130677228Y-114314703D01*
X130677228Y-114314703D01*
G37*
G36*
X53151000Y-114051000D02*
G01*
X50049000Y-114051000D01*
X50049000Y-110949000D01*
X53151000Y-110949000D01*
X53151000Y-114051000D01*
X53151000Y-114051000D01*
G37*
G36*
X90386000Y-112547500D02*
G01*
X88684000Y-112547500D01*
X88684000Y-110845500D01*
X90386000Y-110845500D01*
X90386000Y-112547500D01*
X90386000Y-112547500D01*
G37*
G36*
X131280000Y-112484000D02*
G01*
X129578000Y-112484000D01*
X129578000Y-110782000D01*
X131280000Y-110782000D01*
X131280000Y-112484000D01*
X131280000Y-112484000D01*
G37*
G36*
X181891000Y-111723500D02*
G01*
X178789000Y-111723500D01*
X178789000Y-108621500D01*
X181891000Y-108621500D01*
X181891000Y-111723500D01*
X181891000Y-111723500D01*
G37*
G36*
X74801000Y-110941000D02*
G01*
X72999000Y-110941000D01*
X72999000Y-109139000D01*
X74801000Y-109139000D01*
X74801000Y-110941000D01*
X74801000Y-110941000D01*
G37*
G36*
X145779903Y-107643075D02*
G01*
X146007571Y-107737378D01*
X146212466Y-107874285D01*
X146386715Y-108048534D01*
X146523622Y-108253429D01*
X146523623Y-108253431D01*
X146617925Y-108481097D01*
X146646498Y-108624741D01*
X146666000Y-108722787D01*
X146666000Y-108969213D01*
X146617925Y-109210903D01*
X146523622Y-109438571D01*
X146386715Y-109643466D01*
X146212466Y-109817715D01*
X146007571Y-109954622D01*
X146007570Y-109954623D01*
X146007569Y-109954623D01*
X145779903Y-110048925D01*
X145538214Y-110097000D01*
X145291786Y-110097000D01*
X145050097Y-110048925D01*
X144822431Y-109954623D01*
X144822430Y-109954623D01*
X144822429Y-109954622D01*
X144617534Y-109817715D01*
X144443285Y-109643466D01*
X144306378Y-109438571D01*
X144212075Y-109210903D01*
X144164000Y-108969213D01*
X144164000Y-108722787D01*
X144183503Y-108624741D01*
X144212075Y-108481097D01*
X144306377Y-108253431D01*
X144306378Y-108253429D01*
X144443285Y-108048534D01*
X144617534Y-107874285D01*
X144822429Y-107737378D01*
X145050097Y-107643075D01*
X145291786Y-107595000D01*
X145538214Y-107595000D01*
X145779903Y-107643075D01*
X145779903Y-107643075D01*
G37*
G36*
X165557642Y-107572760D02*
G01*
X165591903Y-107579575D01*
X165819571Y-107673878D01*
X166024466Y-107810785D01*
X166198715Y-107985034D01*
X166312064Y-108154672D01*
X166335623Y-108189931D01*
X166429925Y-108417597D01*
X166478000Y-108659286D01*
X166478000Y-108905714D01*
X166429925Y-109147403D01*
X166403623Y-109210903D01*
X166335622Y-109375071D01*
X166198715Y-109579966D01*
X166024466Y-109754215D01*
X165819571Y-109891122D01*
X165819570Y-109891123D01*
X165819569Y-109891123D01*
X165591903Y-109985425D01*
X165350214Y-110033500D01*
X165103786Y-110033500D01*
X164862097Y-109985425D01*
X164634431Y-109891123D01*
X164634430Y-109891123D01*
X164634429Y-109891122D01*
X164429534Y-109754215D01*
X164255285Y-109579966D01*
X164118378Y-109375071D01*
X164050378Y-109210903D01*
X164024075Y-109147403D01*
X163976000Y-108905714D01*
X163976000Y-108659286D01*
X164024075Y-108417597D01*
X164118377Y-108189931D01*
X164141936Y-108154672D01*
X164255285Y-107985034D01*
X164429534Y-107810785D01*
X164634429Y-107673878D01*
X164862097Y-107579575D01*
X164896358Y-107572760D01*
X165103786Y-107531500D01*
X165350214Y-107531500D01*
X165557642Y-107572760D01*
X165557642Y-107572760D01*
G37*
G36*
X51902585Y-105898802D02*
G01*
X52052410Y-105928604D01*
X52334674Y-106045521D01*
X52588705Y-106215259D01*
X52804741Y-106431295D01*
X52974479Y-106685326D01*
X53046754Y-106859815D01*
X53091396Y-106967591D01*
X53151000Y-107267239D01*
X53151000Y-107572761D01*
X53130887Y-107673877D01*
X53091396Y-107872410D01*
X52974479Y-108154674D01*
X52804741Y-108408705D01*
X52588705Y-108624741D01*
X52334674Y-108794479D01*
X52052410Y-108911396D01*
X51902585Y-108941198D01*
X51752761Y-108971000D01*
X51447239Y-108971000D01*
X51297415Y-108941198D01*
X51147590Y-108911396D01*
X50865326Y-108794479D01*
X50611295Y-108624741D01*
X50395259Y-108408705D01*
X50225521Y-108154674D01*
X50108604Y-107872410D01*
X50069113Y-107673877D01*
X50049000Y-107572761D01*
X50049000Y-107267239D01*
X50108604Y-106967591D01*
X50153246Y-106859815D01*
X50225521Y-106685326D01*
X50395259Y-106431295D01*
X50611295Y-106215259D01*
X50865326Y-106045521D01*
X51147590Y-105928604D01*
X51297415Y-105898802D01*
X51447239Y-105869000D01*
X51752761Y-105869000D01*
X51902585Y-105898802D01*
X51902585Y-105898802D01*
G37*
G36*
X74010442Y-106605518D02*
G01*
X74076627Y-106612037D01*
X74246466Y-106663557D01*
X74402991Y-106747222D01*
X74438729Y-106776552D01*
X74540186Y-106859814D01*
X74623448Y-106961271D01*
X74652778Y-106997009D01*
X74736443Y-107153534D01*
X74787963Y-107323373D01*
X74805359Y-107500000D01*
X74787963Y-107676627D01*
X74736443Y-107846466D01*
X74652778Y-108002991D01*
X74623448Y-108038729D01*
X74540186Y-108140186D01*
X74438729Y-108223448D01*
X74402991Y-108252778D01*
X74246466Y-108336443D01*
X74076627Y-108387963D01*
X74010443Y-108394481D01*
X73944260Y-108401000D01*
X73855740Y-108401000D01*
X73789557Y-108394481D01*
X73723373Y-108387963D01*
X73553534Y-108336443D01*
X73397009Y-108252778D01*
X73361271Y-108223448D01*
X73259814Y-108140186D01*
X73176552Y-108038729D01*
X73147222Y-108002991D01*
X73063557Y-107846466D01*
X73012037Y-107676627D01*
X72994641Y-107500000D01*
X73012037Y-107323373D01*
X73063557Y-107153534D01*
X73147222Y-106997009D01*
X73176552Y-106961271D01*
X73259814Y-106859814D01*
X73361271Y-106776552D01*
X73397009Y-106747222D01*
X73553534Y-106663557D01*
X73723373Y-106612037D01*
X73789558Y-106605518D01*
X73855740Y-106599000D01*
X73944260Y-106599000D01*
X74010442Y-106605518D01*
X74010442Y-106605518D01*
G37*
G36*
X74010443Y-104065519D02*
G01*
X74076627Y-104072037D01*
X74246466Y-104123557D01*
X74402991Y-104207222D01*
X74438729Y-104236552D01*
X74540186Y-104319814D01*
X74623448Y-104421271D01*
X74652778Y-104457009D01*
X74736443Y-104613534D01*
X74787963Y-104783373D01*
X74805359Y-104960000D01*
X74787963Y-105136627D01*
X74736443Y-105306466D01*
X74652778Y-105462991D01*
X74623448Y-105498729D01*
X74540186Y-105600186D01*
X74438729Y-105683448D01*
X74402991Y-105712778D01*
X74246466Y-105796443D01*
X74076627Y-105847963D01*
X74010443Y-105854481D01*
X73944260Y-105861000D01*
X73855740Y-105861000D01*
X73789557Y-105854481D01*
X73723373Y-105847963D01*
X73553534Y-105796443D01*
X73397009Y-105712778D01*
X73361271Y-105683448D01*
X73259814Y-105600186D01*
X73176552Y-105498729D01*
X73147222Y-105462991D01*
X73063557Y-105306466D01*
X73012037Y-105136627D01*
X72994641Y-104960000D01*
X73012037Y-104783373D01*
X73063557Y-104613534D01*
X73147222Y-104457009D01*
X73176552Y-104421271D01*
X73259814Y-104319814D01*
X73361271Y-104236552D01*
X73397009Y-104207222D01*
X73553534Y-104123557D01*
X73723373Y-104072037D01*
X73789558Y-104065518D01*
X73855740Y-104059000D01*
X73944260Y-104059000D01*
X74010443Y-104065519D01*
X74010443Y-104065519D01*
G37*
G36*
X51902585Y-100818802D02*
G01*
X52052410Y-100848604D01*
X52334674Y-100965521D01*
X52588705Y-101135259D01*
X52804741Y-101351295D01*
X52974479Y-101605326D01*
X53091396Y-101887590D01*
X53151000Y-102187240D01*
X53151000Y-102492760D01*
X53091396Y-102792410D01*
X52974479Y-103074674D01*
X52804741Y-103328705D01*
X52588705Y-103544741D01*
X52334674Y-103714479D01*
X52052410Y-103831396D01*
X51902585Y-103861198D01*
X51752761Y-103891000D01*
X51447239Y-103891000D01*
X51297415Y-103861198D01*
X51147590Y-103831396D01*
X50865326Y-103714479D01*
X50611295Y-103544741D01*
X50395259Y-103328705D01*
X50225521Y-103074674D01*
X50108604Y-102792410D01*
X50049000Y-102492760D01*
X50049000Y-102187240D01*
X50108604Y-101887590D01*
X50225521Y-101605326D01*
X50395259Y-101351295D01*
X50611295Y-101135259D01*
X50865326Y-100965521D01*
X51147590Y-100848604D01*
X51297415Y-100818802D01*
X51447239Y-100789000D01*
X51752761Y-100789000D01*
X51902585Y-100818802D01*
X51902585Y-100818802D01*
G37*
G36*
X146666000Y-102597000D02*
G01*
X144164000Y-102597000D01*
X144164000Y-100095000D01*
X146666000Y-100095000D01*
X146666000Y-102597000D01*
X146666000Y-102597000D01*
G37*
G36*
X166478000Y-102533500D02*
G01*
X163976000Y-102533500D01*
X163976000Y-100031500D01*
X166478000Y-100031500D01*
X166478000Y-102533500D01*
X166478000Y-102533500D01*
G37*
G36*
X53151000Y-97251000D02*
G01*
X50049000Y-97251000D01*
X50049000Y-94149000D01*
X53151000Y-94149000D01*
X53151000Y-97251000D01*
X53151000Y-97251000D01*
G37*
G36*
X100902205Y-93544461D02*
G01*
X101020153Y-93567922D01*
X101089056Y-93596463D01*
X101242359Y-93659963D01*
X101442342Y-93793587D01*
X101612413Y-93963658D01*
X101746037Y-94163641D01*
X101799953Y-94293806D01*
X101811776Y-94322348D01*
X101838078Y-94385848D01*
X101885000Y-94621741D01*
X101885000Y-94862259D01*
X101838078Y-95098152D01*
X101746037Y-95320359D01*
X101612413Y-95520342D01*
X101442342Y-95690413D01*
X101242359Y-95824037D01*
X101112194Y-95877953D01*
X101020153Y-95916078D01*
X100902205Y-95939539D01*
X100784259Y-95963000D01*
X100543741Y-95963000D01*
X100425795Y-95939539D01*
X100307847Y-95916078D01*
X100215806Y-95877953D01*
X100085641Y-95824037D01*
X99885658Y-95690413D01*
X99715587Y-95520342D01*
X99581963Y-95320359D01*
X99489922Y-95098152D01*
X99443000Y-94862259D01*
X99443000Y-94621741D01*
X99489922Y-94385848D01*
X99516225Y-94322348D01*
X99528047Y-94293806D01*
X99581963Y-94163641D01*
X99715587Y-93963658D01*
X99885658Y-93793587D01*
X100085641Y-93659963D01*
X100238944Y-93596463D01*
X100307847Y-93567922D01*
X100425795Y-93544461D01*
X100543741Y-93521000D01*
X100784259Y-93521000D01*
X100902205Y-93544461D01*
X100902205Y-93544461D01*
G37*
G36*
X124444205Y-93544461D02*
G01*
X124562153Y-93567922D01*
X124631056Y-93596463D01*
X124784359Y-93659963D01*
X124984342Y-93793587D01*
X125154413Y-93963658D01*
X125288037Y-94163641D01*
X125341953Y-94293806D01*
X125353776Y-94322348D01*
X125380078Y-94385848D01*
X125427000Y-94621741D01*
X125427000Y-94862259D01*
X125380078Y-95098152D01*
X125288037Y-95320359D01*
X125154413Y-95520342D01*
X124984342Y-95690413D01*
X124784359Y-95824037D01*
X124654194Y-95877953D01*
X124562153Y-95916078D01*
X124444205Y-95939539D01*
X124326259Y-95963000D01*
X124085741Y-95963000D01*
X123967795Y-95939539D01*
X123849847Y-95916078D01*
X123757806Y-95877953D01*
X123627641Y-95824037D01*
X123427658Y-95690413D01*
X123257587Y-95520342D01*
X123123963Y-95320359D01*
X123031922Y-95098152D01*
X122985000Y-94862259D01*
X122985000Y-94621741D01*
X123031922Y-94385848D01*
X123058225Y-94322348D01*
X123070047Y-94293806D01*
X123123963Y-94163641D01*
X123257587Y-93963658D01*
X123427658Y-93793587D01*
X123627641Y-93659963D01*
X123780944Y-93596463D01*
X123849847Y-93567922D01*
X123967795Y-93544461D01*
X124085741Y-93521000D01*
X124326259Y-93521000D01*
X124444205Y-93544461D01*
X124444205Y-93544461D01*
G37*
G36*
X105902205Y-93544461D02*
G01*
X106020153Y-93567922D01*
X106089056Y-93596463D01*
X106242359Y-93659963D01*
X106442342Y-93793587D01*
X106612413Y-93963658D01*
X106746037Y-94163641D01*
X106799953Y-94293806D01*
X106811776Y-94322348D01*
X106838078Y-94385848D01*
X106885000Y-94621741D01*
X106885000Y-94862259D01*
X106838078Y-95098152D01*
X106746037Y-95320359D01*
X106612413Y-95520342D01*
X106442342Y-95690413D01*
X106242359Y-95824037D01*
X106112194Y-95877953D01*
X106020153Y-95916078D01*
X105902205Y-95939539D01*
X105784259Y-95963000D01*
X105543741Y-95963000D01*
X105425795Y-95939539D01*
X105307847Y-95916078D01*
X105215806Y-95877953D01*
X105085641Y-95824037D01*
X104885658Y-95690413D01*
X104715587Y-95520342D01*
X104581963Y-95320359D01*
X104489922Y-95098152D01*
X104443000Y-94862259D01*
X104443000Y-94621741D01*
X104489922Y-94385848D01*
X104516225Y-94322348D01*
X104528047Y-94293806D01*
X104581963Y-94163641D01*
X104715587Y-93963658D01*
X104885658Y-93793587D01*
X105085641Y-93659963D01*
X105238944Y-93596463D01*
X105307847Y-93567922D01*
X105425795Y-93544461D01*
X105543741Y-93521000D01*
X105784259Y-93521000D01*
X105902205Y-93544461D01*
X105902205Y-93544461D01*
G37*
G36*
X119444205Y-93544461D02*
G01*
X119562153Y-93567922D01*
X119631056Y-93596463D01*
X119784359Y-93659963D01*
X119984342Y-93793587D01*
X120154413Y-93963658D01*
X120288037Y-94163641D01*
X120341953Y-94293806D01*
X120353776Y-94322348D01*
X120380078Y-94385848D01*
X120427000Y-94621741D01*
X120427000Y-94862259D01*
X120380078Y-95098152D01*
X120288037Y-95320359D01*
X120154413Y-95520342D01*
X119984342Y-95690413D01*
X119784359Y-95824037D01*
X119654194Y-95877953D01*
X119562153Y-95916078D01*
X119444205Y-95939539D01*
X119326259Y-95963000D01*
X119085741Y-95963000D01*
X118967795Y-95939539D01*
X118849847Y-95916078D01*
X118757806Y-95877953D01*
X118627641Y-95824037D01*
X118427658Y-95690413D01*
X118257587Y-95520342D01*
X118123963Y-95320359D01*
X118031922Y-95098152D01*
X117985000Y-94862259D01*
X117985000Y-94621741D01*
X118031922Y-94385848D01*
X118058225Y-94322348D01*
X118070047Y-94293806D01*
X118123963Y-94163641D01*
X118257587Y-93963658D01*
X118427658Y-93793587D01*
X118627641Y-93659963D01*
X118780944Y-93596463D01*
X118849847Y-93567922D01*
X118967795Y-93544461D01*
X119085741Y-93521000D01*
X119326259Y-93521000D01*
X119444205Y-93544461D01*
X119444205Y-93544461D01*
G37*
G36*
X95902205Y-93544461D02*
G01*
X96020153Y-93567922D01*
X96089056Y-93596463D01*
X96242359Y-93659963D01*
X96442342Y-93793587D01*
X96612413Y-93963658D01*
X96746037Y-94163641D01*
X96799953Y-94293806D01*
X96811776Y-94322348D01*
X96838078Y-94385848D01*
X96885000Y-94621741D01*
X96885000Y-94862259D01*
X96838078Y-95098152D01*
X96746037Y-95320359D01*
X96612413Y-95520342D01*
X96442342Y-95690413D01*
X96242359Y-95824037D01*
X96112194Y-95877953D01*
X96020153Y-95916078D01*
X95902205Y-95939539D01*
X95784259Y-95963000D01*
X95543741Y-95963000D01*
X95425795Y-95939539D01*
X95307847Y-95916078D01*
X95215806Y-95877953D01*
X95085641Y-95824037D01*
X94885658Y-95690413D01*
X94715587Y-95520342D01*
X94581963Y-95320359D01*
X94489922Y-95098152D01*
X94443000Y-94862259D01*
X94443000Y-94621741D01*
X94489922Y-94385848D01*
X94516225Y-94322348D01*
X94528047Y-94293806D01*
X94581963Y-94163641D01*
X94715587Y-93963658D01*
X94885658Y-93793587D01*
X95085641Y-93659963D01*
X95238944Y-93596463D01*
X95307847Y-93567922D01*
X95425795Y-93544461D01*
X95543741Y-93521000D01*
X95784259Y-93521000D01*
X95902205Y-93544461D01*
X95902205Y-93544461D01*
G37*
G36*
X114444205Y-93544461D02*
G01*
X114562153Y-93567922D01*
X114631056Y-93596463D01*
X114784359Y-93659963D01*
X114984342Y-93793587D01*
X115154413Y-93963658D01*
X115288037Y-94163641D01*
X115341953Y-94293806D01*
X115353776Y-94322348D01*
X115380078Y-94385848D01*
X115427000Y-94621741D01*
X115427000Y-94862259D01*
X115380078Y-95098152D01*
X115288037Y-95320359D01*
X115154413Y-95520342D01*
X114984342Y-95690413D01*
X114784359Y-95824037D01*
X114654194Y-95877953D01*
X114562153Y-95916078D01*
X114444205Y-95939539D01*
X114326259Y-95963000D01*
X114085741Y-95963000D01*
X113967795Y-95939539D01*
X113849847Y-95916078D01*
X113757806Y-95877953D01*
X113627641Y-95824037D01*
X113427658Y-95690413D01*
X113257587Y-95520342D01*
X113123963Y-95320359D01*
X113031922Y-95098152D01*
X112985000Y-94862259D01*
X112985000Y-94621741D01*
X113031922Y-94385848D01*
X113058225Y-94322348D01*
X113070047Y-94293806D01*
X113123963Y-94163641D01*
X113257587Y-93963658D01*
X113427658Y-93793587D01*
X113627641Y-93659963D01*
X113780944Y-93596463D01*
X113849847Y-93567922D01*
X113967795Y-93544461D01*
X114085741Y-93521000D01*
X114326259Y-93521000D01*
X114444205Y-93544461D01*
X114444205Y-93544461D01*
G37*
G36*
X76979205Y-93480961D02*
G01*
X77097153Y-93504422D01*
X77137175Y-93521000D01*
X77319359Y-93596463D01*
X77519342Y-93730087D01*
X77689413Y-93900158D01*
X77823037Y-94100141D01*
X77876953Y-94230306D01*
X77915078Y-94322347D01*
X77962000Y-94558242D01*
X77962000Y-94798758D01*
X77915078Y-95034653D01*
X77888775Y-95098153D01*
X77823037Y-95256859D01*
X77689413Y-95456842D01*
X77519342Y-95626913D01*
X77319359Y-95760537D01*
X77189194Y-95814453D01*
X77097153Y-95852578D01*
X76979205Y-95876039D01*
X76861259Y-95899500D01*
X76620741Y-95899500D01*
X76502795Y-95876039D01*
X76384847Y-95852578D01*
X76292806Y-95814453D01*
X76162641Y-95760537D01*
X75962658Y-95626913D01*
X75792587Y-95456842D01*
X75658963Y-95256859D01*
X75593225Y-95098153D01*
X75566922Y-95034653D01*
X75520000Y-94798758D01*
X75520000Y-94558242D01*
X75566922Y-94322347D01*
X75605047Y-94230306D01*
X75658963Y-94100141D01*
X75792587Y-93900158D01*
X75962658Y-93730087D01*
X76162641Y-93596463D01*
X76344825Y-93521000D01*
X76384847Y-93504422D01*
X76620741Y-93457500D01*
X76861259Y-93457500D01*
X76979205Y-93480961D01*
X76979205Y-93480961D01*
G37*
G36*
X81979205Y-93480961D02*
G01*
X82097153Y-93504422D01*
X82137175Y-93521000D01*
X82319359Y-93596463D01*
X82519342Y-93730087D01*
X82689413Y-93900158D01*
X82823037Y-94100141D01*
X82876953Y-94230306D01*
X82915078Y-94322347D01*
X82962000Y-94558242D01*
X82962000Y-94798758D01*
X82915078Y-95034653D01*
X82888775Y-95098153D01*
X82823037Y-95256859D01*
X82689413Y-95456842D01*
X82519342Y-95626913D01*
X82319359Y-95760537D01*
X82189194Y-95814453D01*
X82097153Y-95852578D01*
X81979205Y-95876039D01*
X81861259Y-95899500D01*
X81620741Y-95899500D01*
X81502795Y-95876039D01*
X81384847Y-95852578D01*
X81292806Y-95814453D01*
X81162641Y-95760537D01*
X80962658Y-95626913D01*
X80792587Y-95456842D01*
X80658963Y-95256859D01*
X80593225Y-95098153D01*
X80566922Y-95034653D01*
X80520000Y-94798758D01*
X80520000Y-94558242D01*
X80566922Y-94322347D01*
X80605047Y-94230306D01*
X80658963Y-94100141D01*
X80792587Y-93900158D01*
X80962658Y-93730087D01*
X81162641Y-93596463D01*
X81344825Y-93521000D01*
X81384847Y-93504422D01*
X81620741Y-93457500D01*
X81861259Y-93457500D01*
X81979205Y-93480961D01*
X81979205Y-93480961D01*
G37*
G36*
X86979205Y-93480961D02*
G01*
X87097153Y-93504422D01*
X87137175Y-93521000D01*
X87319359Y-93596463D01*
X87519342Y-93730087D01*
X87689413Y-93900158D01*
X87823037Y-94100141D01*
X87876953Y-94230306D01*
X87915078Y-94322347D01*
X87962000Y-94558242D01*
X87962000Y-94798758D01*
X87915078Y-95034653D01*
X87888775Y-95098153D01*
X87823037Y-95256859D01*
X87689413Y-95456842D01*
X87519342Y-95626913D01*
X87319359Y-95760537D01*
X87189194Y-95814453D01*
X87097153Y-95852578D01*
X86979205Y-95876039D01*
X86861259Y-95899500D01*
X86620741Y-95899500D01*
X86502795Y-95876039D01*
X86384847Y-95852578D01*
X86292806Y-95814453D01*
X86162641Y-95760537D01*
X85962658Y-95626913D01*
X85792587Y-95456842D01*
X85658963Y-95256859D01*
X85593225Y-95098153D01*
X85566922Y-95034653D01*
X85520000Y-94798758D01*
X85520000Y-94558242D01*
X85566922Y-94322347D01*
X85605047Y-94230306D01*
X85658963Y-94100141D01*
X85792587Y-93900158D01*
X85962658Y-93730087D01*
X86162641Y-93596463D01*
X86344825Y-93521000D01*
X86384847Y-93504422D01*
X86620741Y-93457500D01*
X86861259Y-93457500D01*
X86979205Y-93480961D01*
X86979205Y-93480961D01*
G37*
G36*
X51902585Y-89098802D02*
G01*
X52052410Y-89128604D01*
X52334674Y-89245521D01*
X52588705Y-89415259D01*
X52804741Y-89631295D01*
X52974479Y-89885326D01*
X53091396Y-90167590D01*
X53151000Y-90467240D01*
X53151000Y-90772760D01*
X53091396Y-91072410D01*
X52974479Y-91354674D01*
X52804741Y-91608705D01*
X52588705Y-91824741D01*
X52334674Y-91994479D01*
X52052410Y-92111396D01*
X51902585Y-92141198D01*
X51752761Y-92171000D01*
X51447239Y-92171000D01*
X51297415Y-92141198D01*
X51147590Y-92111396D01*
X50865326Y-91994479D01*
X50611295Y-91824741D01*
X50395259Y-91608705D01*
X50225521Y-91354674D01*
X50108604Y-91072410D01*
X50049000Y-90772760D01*
X50049000Y-90467240D01*
X50108604Y-90167590D01*
X50225521Y-89885326D01*
X50395259Y-89631295D01*
X50611295Y-89415259D01*
X50865326Y-89245521D01*
X51147590Y-89128604D01*
X51297415Y-89098802D01*
X51447239Y-89069000D01*
X51752761Y-89069000D01*
X51902585Y-89098802D01*
X51902585Y-89098802D01*
G37*
G36*
X65289890Y-83974017D02*
G01*
X65408364Y-84023091D01*
X65514988Y-84094335D01*
X65605665Y-84185012D01*
X65676910Y-84291638D01*
X65708517Y-84367944D01*
X65720068Y-84389555D01*
X65735613Y-84408497D01*
X65754555Y-84424042D01*
X65776166Y-84435593D01*
X65799615Y-84442706D01*
X65824001Y-84445108D01*
X65848387Y-84442706D01*
X65871836Y-84435593D01*
X65893447Y-84424042D01*
X65912389Y-84408497D01*
X65927934Y-84389555D01*
X65939485Y-84367944D01*
X65946598Y-84344495D01*
X65949000Y-84320109D01*
X65949000Y-83949000D01*
X67251000Y-83949000D01*
X67251000Y-85251000D01*
X65949000Y-85251000D01*
X65949000Y-84879891D01*
X65946598Y-84855505D01*
X65939485Y-84832056D01*
X65927934Y-84810445D01*
X65912389Y-84791503D01*
X65893447Y-84775958D01*
X65871836Y-84764407D01*
X65848387Y-84757294D01*
X65824001Y-84754892D01*
X65799615Y-84757294D01*
X65776166Y-84764407D01*
X65754555Y-84775958D01*
X65735613Y-84791503D01*
X65720068Y-84810445D01*
X65708517Y-84832055D01*
X65676909Y-84908364D01*
X65605665Y-85014988D01*
X65514988Y-85105665D01*
X65408364Y-85176909D01*
X65408363Y-85176910D01*
X65408362Y-85176910D01*
X65289890Y-85225983D01*
X65164119Y-85251000D01*
X65035881Y-85251000D01*
X64910110Y-85225983D01*
X64791638Y-85176910D01*
X64791637Y-85176910D01*
X64791636Y-85176909D01*
X64685012Y-85105665D01*
X64594335Y-85014988D01*
X64523091Y-84908364D01*
X64474017Y-84789890D01*
X64449000Y-84664118D01*
X64449000Y-84535882D01*
X64474017Y-84410110D01*
X64523091Y-84291636D01*
X64594335Y-84185012D01*
X64685012Y-84094335D01*
X64791636Y-84023091D01*
X64910110Y-83974017D01*
X65035881Y-83949000D01*
X65164119Y-83949000D01*
X65289890Y-83974017D01*
X65289890Y-83974017D01*
G37*
G36*
X191375256Y-81891298D02*
G01*
X191481579Y-81912447D01*
X191782042Y-82036903D01*
X192052451Y-82217585D01*
X192282415Y-82447549D01*
X192463097Y-82717958D01*
X192587553Y-83018421D01*
X192651000Y-83337391D01*
X192651000Y-83662609D01*
X192587553Y-83981579D01*
X192463097Y-84282042D01*
X192282415Y-84552451D01*
X192052451Y-84782415D01*
X191782042Y-84963097D01*
X191481579Y-85087553D01*
X191390524Y-85105665D01*
X191162611Y-85151000D01*
X190837389Y-85151000D01*
X190609476Y-85105665D01*
X190518421Y-85087553D01*
X190217958Y-84963097D01*
X189947549Y-84782415D01*
X189717585Y-84552451D01*
X189536903Y-84282042D01*
X189412447Y-83981579D01*
X189349000Y-83662609D01*
X189349000Y-83337391D01*
X189412447Y-83018421D01*
X189536903Y-82717958D01*
X189717585Y-82447549D01*
X189947549Y-82217585D01*
X190217958Y-82036903D01*
X190518421Y-81912447D01*
X190624744Y-81891298D01*
X190837389Y-81849000D01*
X191162611Y-81849000D01*
X191375256Y-81891298D01*
X191375256Y-81891298D01*
G37*
G36*
X50375256Y-81891298D02*
G01*
X50481579Y-81912447D01*
X50782042Y-82036903D01*
X51052451Y-82217585D01*
X51282415Y-82447549D01*
X51463097Y-82717958D01*
X51587553Y-83018421D01*
X51651000Y-83337391D01*
X51651000Y-83662609D01*
X51587553Y-83981579D01*
X51463097Y-84282042D01*
X51282415Y-84552451D01*
X51052451Y-84782415D01*
X50782042Y-84963097D01*
X50481579Y-85087553D01*
X50390524Y-85105665D01*
X50162611Y-85151000D01*
X49837389Y-85151000D01*
X49609476Y-85105665D01*
X49518421Y-85087553D01*
X49217958Y-84963097D01*
X48947549Y-84782415D01*
X48717585Y-84552451D01*
X48536903Y-84282042D01*
X48412447Y-83981579D01*
X48349000Y-83662609D01*
X48349000Y-83337391D01*
X48412447Y-83018421D01*
X48536903Y-82717958D01*
X48717585Y-82447549D01*
X48947549Y-82217585D01*
X49217958Y-82036903D01*
X49518421Y-81912447D01*
X49624744Y-81891298D01*
X49837389Y-81849000D01*
X50162611Y-81849000D01*
X50375256Y-81891298D01*
X50375256Y-81891298D01*
G37*
M02*
