G04 #@! TF.GenerationSoftware,KiCad,Pcbnew,(5.1.2)-2*
G04 #@! TF.CreationDate,2021-06-28T19:19:26-03:00*
G04 #@! TF.ProjectId,Amplificador_v2,416d706c-6966-4696-9361-646f725f7632,rev?*
G04 #@! TF.SameCoordinates,Original*
G04 #@! TF.FileFunction,Legend,Bot*
G04 #@! TF.FilePolarity,Positive*
%FSLAX46Y46*%
G04 Gerber Fmt 4.6, Leading zero omitted, Abs format (unit mm)*
G04 Created by KiCad (PCBNEW (5.1.2)-2) date 2021-06-28 19:19:26*
%MOMM*%
%LPD*%
G04 APERTURE LIST*
%ADD10C,0.120000*%
%ADD11C,0.150000*%
%ADD12C,1.542000*%
%ADD13C,2.442000*%
%ADD14C,3.302000*%
%ADD15C,1.302000*%
%ADD16R,1.302000X1.302000*%
%ADD17O,1.802000X1.802000*%
%ADD18R,1.802000X1.802000*%
%ADD19C,3.102000*%
%ADD20R,3.102000X3.102000*%
%ADD21C,1.702000*%
%ADD22R,1.702000X1.702000*%
%ADD23C,2.502000*%
%ADD24R,2.502000X2.502000*%
%ADD25O,2.102000X2.007000*%
%ADD26R,2.102000X2.007000*%
%ADD27O,2.007000X2.102000*%
%ADD28R,2.007000X2.102000*%
%ADD29C,0.100000*%
%ADD30C,1.452000*%
%ADD31R,3.602000X2.402000*%
%ADD32C,1.077000*%
G04 APERTURE END LIST*
D10*
X124289564Y-159190000D02*
X120185436Y-159190000D01*
X124289564Y-155770000D02*
X120185436Y-155770000D01*
X127028000Y-149932500D02*
X119728000Y-149932500D01*
X127028000Y-154232500D02*
X119728000Y-154232500D01*
X127028000Y-149932500D02*
X127028000Y-154232500D01*
X114946500Y-157538922D02*
X114946500Y-158056078D01*
X113526500Y-157538922D02*
X113526500Y-158056078D01*
X117232500Y-157538922D02*
X117232500Y-158056078D01*
X115812500Y-157538922D02*
X115812500Y-158056078D01*
X117042000Y-151188922D02*
X117042000Y-151706078D01*
X115622000Y-151188922D02*
X115622000Y-151706078D01*
X114756000Y-151188922D02*
X114756000Y-151706078D01*
X113336000Y-151188922D02*
X113336000Y-151706078D01*
D11*
X122867857Y-160727380D02*
X123201190Y-160251190D01*
X123439285Y-160727380D02*
X123439285Y-159727380D01*
X123058333Y-159727380D01*
X122963095Y-159775000D01*
X122915476Y-159822619D01*
X122867857Y-159917857D01*
X122867857Y-160060714D01*
X122915476Y-160155952D01*
X122963095Y-160203571D01*
X123058333Y-160251190D01*
X123439285Y-160251190D01*
X122486904Y-159822619D02*
X122439285Y-159775000D01*
X122344047Y-159727380D01*
X122105952Y-159727380D01*
X122010714Y-159775000D01*
X121963095Y-159822619D01*
X121915476Y-159917857D01*
X121915476Y-160013095D01*
X121963095Y-160155952D01*
X122534523Y-160727380D01*
X121915476Y-160727380D01*
X121296428Y-159727380D02*
X121201190Y-159727380D01*
X121105952Y-159775000D01*
X121058333Y-159822619D01*
X121010714Y-159917857D01*
X120963095Y-160108333D01*
X120963095Y-160346428D01*
X121010714Y-160536904D01*
X121058333Y-160632142D01*
X121105952Y-160679761D01*
X121201190Y-160727380D01*
X121296428Y-160727380D01*
X121391666Y-160679761D01*
X121439285Y-160632142D01*
X121486904Y-160536904D01*
X121534523Y-160346428D01*
X121534523Y-160108333D01*
X121486904Y-159917857D01*
X121439285Y-159822619D01*
X121391666Y-159775000D01*
X121296428Y-159727380D01*
X123166095Y-149534880D02*
X123166095Y-148534880D01*
X122928000Y-148534880D01*
X122785142Y-148582500D01*
X122689904Y-148677738D01*
X122642285Y-148772976D01*
X122594666Y-148963452D01*
X122594666Y-149106309D01*
X122642285Y-149296785D01*
X122689904Y-149392023D01*
X122785142Y-149487261D01*
X122928000Y-149534880D01*
X123166095Y-149534880D01*
X122261333Y-148534880D02*
X121642285Y-148534880D01*
X121975619Y-148915833D01*
X121832761Y-148915833D01*
X121737523Y-148963452D01*
X121689904Y-149011071D01*
X121642285Y-149106309D01*
X121642285Y-149344404D01*
X121689904Y-149439642D01*
X121737523Y-149487261D01*
X121832761Y-149534880D01*
X122118476Y-149534880D01*
X122213714Y-149487261D01*
X122261333Y-149439642D01*
X111382142Y-157132142D02*
X111429761Y-157084523D01*
X111477380Y-156941666D01*
X111477380Y-156846428D01*
X111429761Y-156703571D01*
X111334523Y-156608333D01*
X111239285Y-156560714D01*
X111048809Y-156513095D01*
X110905952Y-156513095D01*
X110715476Y-156560714D01*
X110620238Y-156608333D01*
X110525000Y-156703571D01*
X110477380Y-156846428D01*
X110477380Y-156941666D01*
X110525000Y-157084523D01*
X110572619Y-157132142D01*
X110572619Y-157513095D02*
X110525000Y-157560714D01*
X110477380Y-157655952D01*
X110477380Y-157894047D01*
X110525000Y-157989285D01*
X110572619Y-158036904D01*
X110667857Y-158084523D01*
X110763095Y-158084523D01*
X110905952Y-158036904D01*
X111477380Y-157465476D01*
X111477380Y-158084523D01*
X110477380Y-158989285D02*
X110477380Y-158513095D01*
X110953571Y-158465476D01*
X110905952Y-158513095D01*
X110858333Y-158608333D01*
X110858333Y-158846428D01*
X110905952Y-158941666D01*
X110953571Y-158989285D01*
X111048809Y-159036904D01*
X111286904Y-159036904D01*
X111382142Y-158989285D01*
X111429761Y-158941666D01*
X111477380Y-158846428D01*
X111477380Y-158608333D01*
X111429761Y-158513095D01*
X111382142Y-158465476D01*
X112782142Y-157157142D02*
X112829761Y-157109523D01*
X112877380Y-156966666D01*
X112877380Y-156871428D01*
X112829761Y-156728571D01*
X112734523Y-156633333D01*
X112639285Y-156585714D01*
X112448809Y-156538095D01*
X112305952Y-156538095D01*
X112115476Y-156585714D01*
X112020238Y-156633333D01*
X111925000Y-156728571D01*
X111877380Y-156871428D01*
X111877380Y-156966666D01*
X111925000Y-157109523D01*
X111972619Y-157157142D01*
X111972619Y-157538095D02*
X111925000Y-157585714D01*
X111877380Y-157680952D01*
X111877380Y-157919047D01*
X111925000Y-158014285D01*
X111972619Y-158061904D01*
X112067857Y-158109523D01*
X112163095Y-158109523D01*
X112305952Y-158061904D01*
X112877380Y-157490476D01*
X112877380Y-158109523D01*
X111877380Y-158442857D02*
X111877380Y-159061904D01*
X112258333Y-158728571D01*
X112258333Y-158871428D01*
X112305952Y-158966666D01*
X112353571Y-159014285D01*
X112448809Y-159061904D01*
X112686904Y-159061904D01*
X112782142Y-159014285D01*
X112829761Y-158966666D01*
X112877380Y-158871428D01*
X112877380Y-158585714D01*
X112829761Y-158490476D01*
X112782142Y-158442857D01*
X112507142Y-150757142D02*
X112554761Y-150709523D01*
X112602380Y-150566666D01*
X112602380Y-150471428D01*
X112554761Y-150328571D01*
X112459523Y-150233333D01*
X112364285Y-150185714D01*
X112173809Y-150138095D01*
X112030952Y-150138095D01*
X111840476Y-150185714D01*
X111745238Y-150233333D01*
X111650000Y-150328571D01*
X111602380Y-150471428D01*
X111602380Y-150566666D01*
X111650000Y-150709523D01*
X111697619Y-150757142D01*
X111697619Y-151138095D02*
X111650000Y-151185714D01*
X111602380Y-151280952D01*
X111602380Y-151519047D01*
X111650000Y-151614285D01*
X111697619Y-151661904D01*
X111792857Y-151709523D01*
X111888095Y-151709523D01*
X112030952Y-151661904D01*
X112602380Y-151090476D01*
X112602380Y-151709523D01*
X111697619Y-152090476D02*
X111650000Y-152138095D01*
X111602380Y-152233333D01*
X111602380Y-152471428D01*
X111650000Y-152566666D01*
X111697619Y-152614285D01*
X111792857Y-152661904D01*
X111888095Y-152661904D01*
X112030952Y-152614285D01*
X112602380Y-152042857D01*
X112602380Y-152661904D01*
X111082142Y-150782142D02*
X111129761Y-150734523D01*
X111177380Y-150591666D01*
X111177380Y-150496428D01*
X111129761Y-150353571D01*
X111034523Y-150258333D01*
X110939285Y-150210714D01*
X110748809Y-150163095D01*
X110605952Y-150163095D01*
X110415476Y-150210714D01*
X110320238Y-150258333D01*
X110225000Y-150353571D01*
X110177380Y-150496428D01*
X110177380Y-150591666D01*
X110225000Y-150734523D01*
X110272619Y-150782142D01*
X111177380Y-151734523D02*
X111177380Y-151163095D01*
X111177380Y-151448809D02*
X110177380Y-151448809D01*
X110320238Y-151353571D01*
X110415476Y-151258333D01*
X110463095Y-151163095D01*
X111177380Y-152210714D02*
X111177380Y-152401190D01*
X111129761Y-152496428D01*
X111082142Y-152544047D01*
X110939285Y-152639285D01*
X110748809Y-152686904D01*
X110367857Y-152686904D01*
X110272619Y-152639285D01*
X110225000Y-152591666D01*
X110177380Y-152496428D01*
X110177380Y-152305952D01*
X110225000Y-152210714D01*
X110272619Y-152163095D01*
X110367857Y-152115476D01*
X110605952Y-152115476D01*
X110701190Y-152163095D01*
X110748809Y-152210714D01*
X110796428Y-152305952D01*
X110796428Y-152496428D01*
X110748809Y-152591666D01*
X110701190Y-152639285D01*
X110605952Y-152686904D01*
%LPC*%
D12*
X73850500Y-123825000D03*
X73850500Y-121285000D03*
X73850500Y-118745000D03*
D13*
X124206000Y-94742000D03*
X119206000Y-94742000D03*
X114206000Y-94742000D03*
X105664000Y-94742000D03*
X100664000Y-94742000D03*
X95664000Y-94742000D03*
X86741000Y-94678500D03*
X81741000Y-94678500D03*
X76741000Y-94678500D03*
D14*
X50000000Y-175500000D03*
X191000000Y-175500000D03*
X191000000Y-83500000D03*
X50000000Y-83500000D03*
D15*
X68500000Y-116600000D03*
D16*
X68500000Y-118100000D03*
D17*
X73900000Y-104960000D03*
X73900000Y-107500000D03*
D18*
X73900000Y-110040000D03*
D19*
X51600000Y-90620000D03*
D20*
X51600000Y-95700000D03*
D19*
X51600000Y-102340000D03*
X51600000Y-107420000D03*
D20*
X51600000Y-112500000D03*
D15*
X65100000Y-84600000D03*
D16*
X66600000Y-84600000D03*
D17*
X77660500Y-129857500D03*
D18*
X80200500Y-129857500D03*
D17*
X123190000Y-129603500D03*
D18*
X120650000Y-129603500D03*
D17*
X103505000Y-129667000D03*
D18*
X100965000Y-129667000D03*
D21*
X91948000Y-162020000D03*
D22*
X91948000Y-160020000D03*
D21*
X107315000Y-164521000D03*
D22*
X107315000Y-168021000D03*
D21*
X50704500Y-157162500D03*
D22*
X48704500Y-157162500D03*
D21*
X72961500Y-168370500D03*
D22*
X72961500Y-170370500D03*
D19*
X180000000Y-168580000D03*
D20*
X180000000Y-163500000D03*
D12*
X55689500Y-167767000D03*
X58229500Y-167767000D03*
X60769500Y-167767000D03*
X55689500Y-162052000D03*
X58229500Y-162052000D03*
X60769500Y-162052000D03*
D17*
X91122500Y-133731000D03*
D18*
X88582500Y-133731000D03*
D23*
X185674000Y-147527000D03*
D24*
X185674000Y-152527000D03*
D23*
X185610500Y-138540500D03*
D24*
X185610500Y-133540500D03*
D21*
X130429000Y-115133000D03*
D22*
X130429000Y-111633000D03*
D21*
X89535000Y-115196500D03*
D22*
X89535000Y-111696500D03*
D25*
X95758000Y-122936000D03*
X95758000Y-120396000D03*
D26*
X95758000Y-117856000D03*
D25*
X120650000Y-122999500D03*
X120650000Y-120459500D03*
D26*
X120650000Y-117919500D03*
D25*
X104775000Y-122936000D03*
X104775000Y-120396000D03*
D26*
X104775000Y-117856000D03*
D19*
X180340000Y-120332500D03*
X180340000Y-115252500D03*
D20*
X180340000Y-110172500D03*
D23*
X145415000Y-128785000D03*
D24*
X145415000Y-121285000D03*
D23*
X145415000Y-108846000D03*
D24*
X145415000Y-101346000D03*
D23*
X165227000Y-128912000D03*
D24*
X165227000Y-121412000D03*
D23*
X165227000Y-108782500D03*
D24*
X165227000Y-101282500D03*
D23*
X155942000Y-164592000D03*
X170942000Y-164592000D03*
D17*
X123761500Y-135699500D03*
X123761500Y-138239500D03*
D18*
X123761500Y-140779500D03*
D17*
X101219000Y-143383000D03*
D18*
X98679000Y-143383000D03*
D15*
X101028500Y-134913500D03*
X101028500Y-133413500D03*
D27*
X119697500Y-164084000D03*
X117157500Y-164084000D03*
D28*
X114617500Y-164084000D03*
D29*
G36*
X119820968Y-155755295D02*
G01*
X119847069Y-155759167D01*
X119872666Y-155765578D01*
X119897511Y-155774468D01*
X119921365Y-155785750D01*
X119943998Y-155799316D01*
X119965193Y-155815035D01*
X119984745Y-155832755D01*
X120002465Y-155852307D01*
X120018184Y-155873502D01*
X120031750Y-155896135D01*
X120043032Y-155919989D01*
X120051922Y-155944834D01*
X120058333Y-155970431D01*
X120062205Y-155996532D01*
X120063500Y-156022888D01*
X120063500Y-158937112D01*
X120062205Y-158963468D01*
X120058333Y-158989569D01*
X120051922Y-159015166D01*
X120043032Y-159040011D01*
X120031750Y-159063865D01*
X120018184Y-159086498D01*
X120002465Y-159107693D01*
X119984745Y-159127245D01*
X119965193Y-159144965D01*
X119943998Y-159160684D01*
X119921365Y-159174250D01*
X119897511Y-159185532D01*
X119872666Y-159194422D01*
X119847069Y-159200833D01*
X119820968Y-159204705D01*
X119794612Y-159206000D01*
X118880388Y-159206000D01*
X118854032Y-159204705D01*
X118827931Y-159200833D01*
X118802334Y-159194422D01*
X118777489Y-159185532D01*
X118753635Y-159174250D01*
X118731002Y-159160684D01*
X118709807Y-159144965D01*
X118690255Y-159127245D01*
X118672535Y-159107693D01*
X118656816Y-159086498D01*
X118643250Y-159063865D01*
X118631968Y-159040011D01*
X118623078Y-159015166D01*
X118616667Y-158989569D01*
X118612795Y-158963468D01*
X118611500Y-158937112D01*
X118611500Y-156022888D01*
X118612795Y-155996532D01*
X118616667Y-155970431D01*
X118623078Y-155944834D01*
X118631968Y-155919989D01*
X118643250Y-155896135D01*
X118656816Y-155873502D01*
X118672535Y-155852307D01*
X118690255Y-155832755D01*
X118709807Y-155815035D01*
X118731002Y-155799316D01*
X118753635Y-155785750D01*
X118777489Y-155774468D01*
X118802334Y-155765578D01*
X118827931Y-155759167D01*
X118854032Y-155755295D01*
X118880388Y-155754000D01*
X119794612Y-155754000D01*
X119820968Y-155755295D01*
X119820968Y-155755295D01*
G37*
D30*
X119337500Y-157480000D03*
D29*
G36*
X125620968Y-155755295D02*
G01*
X125647069Y-155759167D01*
X125672666Y-155765578D01*
X125697511Y-155774468D01*
X125721365Y-155785750D01*
X125743998Y-155799316D01*
X125765193Y-155815035D01*
X125784745Y-155832755D01*
X125802465Y-155852307D01*
X125818184Y-155873502D01*
X125831750Y-155896135D01*
X125843032Y-155919989D01*
X125851922Y-155944834D01*
X125858333Y-155970431D01*
X125862205Y-155996532D01*
X125863500Y-156022888D01*
X125863500Y-158937112D01*
X125862205Y-158963468D01*
X125858333Y-158989569D01*
X125851922Y-159015166D01*
X125843032Y-159040011D01*
X125831750Y-159063865D01*
X125818184Y-159086498D01*
X125802465Y-159107693D01*
X125784745Y-159127245D01*
X125765193Y-159144965D01*
X125743998Y-159160684D01*
X125721365Y-159174250D01*
X125697511Y-159185532D01*
X125672666Y-159194422D01*
X125647069Y-159200833D01*
X125620968Y-159204705D01*
X125594612Y-159206000D01*
X124680388Y-159206000D01*
X124654032Y-159204705D01*
X124627931Y-159200833D01*
X124602334Y-159194422D01*
X124577489Y-159185532D01*
X124553635Y-159174250D01*
X124531002Y-159160684D01*
X124509807Y-159144965D01*
X124490255Y-159127245D01*
X124472535Y-159107693D01*
X124456816Y-159086498D01*
X124443250Y-159063865D01*
X124431968Y-159040011D01*
X124423078Y-159015166D01*
X124416667Y-158989569D01*
X124412795Y-158963468D01*
X124411500Y-158937112D01*
X124411500Y-156022888D01*
X124412795Y-155996532D01*
X124416667Y-155970431D01*
X124423078Y-155944834D01*
X124431968Y-155919989D01*
X124443250Y-155896135D01*
X124456816Y-155873502D01*
X124472535Y-155852307D01*
X124490255Y-155832755D01*
X124509807Y-155815035D01*
X124531002Y-155799316D01*
X124553635Y-155785750D01*
X124577489Y-155774468D01*
X124602334Y-155765578D01*
X124627931Y-155759167D01*
X124654032Y-155755295D01*
X124680388Y-155754000D01*
X125594612Y-155754000D01*
X125620968Y-155755295D01*
X125620968Y-155755295D01*
G37*
D30*
X125137500Y-157480000D03*
D19*
X169550002Y-151500000D03*
X155750001Y-151500000D03*
D31*
X119728000Y-152082500D03*
X125128000Y-152082500D03*
D29*
G36*
X114744641Y-158197797D02*
G01*
X114770778Y-158201674D01*
X114796409Y-158208094D01*
X114821288Y-158216995D01*
X114845174Y-158228293D01*
X114867837Y-158241877D01*
X114889060Y-158257617D01*
X114908639Y-158275361D01*
X114926383Y-158294940D01*
X114942123Y-158316163D01*
X114955707Y-158338826D01*
X114967005Y-158362712D01*
X114975906Y-158387591D01*
X114982326Y-158413222D01*
X114986203Y-158439359D01*
X114987500Y-158465750D01*
X114987500Y-159004250D01*
X114986203Y-159030641D01*
X114982326Y-159056778D01*
X114975906Y-159082409D01*
X114967005Y-159107288D01*
X114955707Y-159131174D01*
X114942123Y-159153837D01*
X114926383Y-159175060D01*
X114908639Y-159194639D01*
X114889060Y-159212383D01*
X114867837Y-159228123D01*
X114845174Y-159241707D01*
X114821288Y-159253005D01*
X114796409Y-159261906D01*
X114770778Y-159268326D01*
X114744641Y-159272203D01*
X114718250Y-159273500D01*
X113754750Y-159273500D01*
X113728359Y-159272203D01*
X113702222Y-159268326D01*
X113676591Y-159261906D01*
X113651712Y-159253005D01*
X113627826Y-159241707D01*
X113605163Y-159228123D01*
X113583940Y-159212383D01*
X113564361Y-159194639D01*
X113546617Y-159175060D01*
X113530877Y-159153837D01*
X113517293Y-159131174D01*
X113505995Y-159107288D01*
X113497094Y-159082409D01*
X113490674Y-159056778D01*
X113486797Y-159030641D01*
X113485500Y-159004250D01*
X113485500Y-158465750D01*
X113486797Y-158439359D01*
X113490674Y-158413222D01*
X113497094Y-158387591D01*
X113505995Y-158362712D01*
X113517293Y-158338826D01*
X113530877Y-158316163D01*
X113546617Y-158294940D01*
X113564361Y-158275361D01*
X113583940Y-158257617D01*
X113605163Y-158241877D01*
X113627826Y-158228293D01*
X113651712Y-158216995D01*
X113676591Y-158208094D01*
X113702222Y-158201674D01*
X113728359Y-158197797D01*
X113754750Y-158196500D01*
X114718250Y-158196500D01*
X114744641Y-158197797D01*
X114744641Y-158197797D01*
G37*
D32*
X114236500Y-158735000D03*
D29*
G36*
X114744641Y-156322797D02*
G01*
X114770778Y-156326674D01*
X114796409Y-156333094D01*
X114821288Y-156341995D01*
X114845174Y-156353293D01*
X114867837Y-156366877D01*
X114889060Y-156382617D01*
X114908639Y-156400361D01*
X114926383Y-156419940D01*
X114942123Y-156441163D01*
X114955707Y-156463826D01*
X114967005Y-156487712D01*
X114975906Y-156512591D01*
X114982326Y-156538222D01*
X114986203Y-156564359D01*
X114987500Y-156590750D01*
X114987500Y-157129250D01*
X114986203Y-157155641D01*
X114982326Y-157181778D01*
X114975906Y-157207409D01*
X114967005Y-157232288D01*
X114955707Y-157256174D01*
X114942123Y-157278837D01*
X114926383Y-157300060D01*
X114908639Y-157319639D01*
X114889060Y-157337383D01*
X114867837Y-157353123D01*
X114845174Y-157366707D01*
X114821288Y-157378005D01*
X114796409Y-157386906D01*
X114770778Y-157393326D01*
X114744641Y-157397203D01*
X114718250Y-157398500D01*
X113754750Y-157398500D01*
X113728359Y-157397203D01*
X113702222Y-157393326D01*
X113676591Y-157386906D01*
X113651712Y-157378005D01*
X113627826Y-157366707D01*
X113605163Y-157353123D01*
X113583940Y-157337383D01*
X113564361Y-157319639D01*
X113546617Y-157300060D01*
X113530877Y-157278837D01*
X113517293Y-157256174D01*
X113505995Y-157232288D01*
X113497094Y-157207409D01*
X113490674Y-157181778D01*
X113486797Y-157155641D01*
X113485500Y-157129250D01*
X113485500Y-156590750D01*
X113486797Y-156564359D01*
X113490674Y-156538222D01*
X113497094Y-156512591D01*
X113505995Y-156487712D01*
X113517293Y-156463826D01*
X113530877Y-156441163D01*
X113546617Y-156419940D01*
X113564361Y-156400361D01*
X113583940Y-156382617D01*
X113605163Y-156366877D01*
X113627826Y-156353293D01*
X113651712Y-156341995D01*
X113676591Y-156333094D01*
X113702222Y-156326674D01*
X113728359Y-156322797D01*
X113754750Y-156321500D01*
X114718250Y-156321500D01*
X114744641Y-156322797D01*
X114744641Y-156322797D01*
G37*
D32*
X114236500Y-156860000D03*
D29*
G36*
X117030641Y-158197797D02*
G01*
X117056778Y-158201674D01*
X117082409Y-158208094D01*
X117107288Y-158216995D01*
X117131174Y-158228293D01*
X117153837Y-158241877D01*
X117175060Y-158257617D01*
X117194639Y-158275361D01*
X117212383Y-158294940D01*
X117228123Y-158316163D01*
X117241707Y-158338826D01*
X117253005Y-158362712D01*
X117261906Y-158387591D01*
X117268326Y-158413222D01*
X117272203Y-158439359D01*
X117273500Y-158465750D01*
X117273500Y-159004250D01*
X117272203Y-159030641D01*
X117268326Y-159056778D01*
X117261906Y-159082409D01*
X117253005Y-159107288D01*
X117241707Y-159131174D01*
X117228123Y-159153837D01*
X117212383Y-159175060D01*
X117194639Y-159194639D01*
X117175060Y-159212383D01*
X117153837Y-159228123D01*
X117131174Y-159241707D01*
X117107288Y-159253005D01*
X117082409Y-159261906D01*
X117056778Y-159268326D01*
X117030641Y-159272203D01*
X117004250Y-159273500D01*
X116040750Y-159273500D01*
X116014359Y-159272203D01*
X115988222Y-159268326D01*
X115962591Y-159261906D01*
X115937712Y-159253005D01*
X115913826Y-159241707D01*
X115891163Y-159228123D01*
X115869940Y-159212383D01*
X115850361Y-159194639D01*
X115832617Y-159175060D01*
X115816877Y-159153837D01*
X115803293Y-159131174D01*
X115791995Y-159107288D01*
X115783094Y-159082409D01*
X115776674Y-159056778D01*
X115772797Y-159030641D01*
X115771500Y-159004250D01*
X115771500Y-158465750D01*
X115772797Y-158439359D01*
X115776674Y-158413222D01*
X115783094Y-158387591D01*
X115791995Y-158362712D01*
X115803293Y-158338826D01*
X115816877Y-158316163D01*
X115832617Y-158294940D01*
X115850361Y-158275361D01*
X115869940Y-158257617D01*
X115891163Y-158241877D01*
X115913826Y-158228293D01*
X115937712Y-158216995D01*
X115962591Y-158208094D01*
X115988222Y-158201674D01*
X116014359Y-158197797D01*
X116040750Y-158196500D01*
X117004250Y-158196500D01*
X117030641Y-158197797D01*
X117030641Y-158197797D01*
G37*
D32*
X116522500Y-158735000D03*
D29*
G36*
X117030641Y-156322797D02*
G01*
X117056778Y-156326674D01*
X117082409Y-156333094D01*
X117107288Y-156341995D01*
X117131174Y-156353293D01*
X117153837Y-156366877D01*
X117175060Y-156382617D01*
X117194639Y-156400361D01*
X117212383Y-156419940D01*
X117228123Y-156441163D01*
X117241707Y-156463826D01*
X117253005Y-156487712D01*
X117261906Y-156512591D01*
X117268326Y-156538222D01*
X117272203Y-156564359D01*
X117273500Y-156590750D01*
X117273500Y-157129250D01*
X117272203Y-157155641D01*
X117268326Y-157181778D01*
X117261906Y-157207409D01*
X117253005Y-157232288D01*
X117241707Y-157256174D01*
X117228123Y-157278837D01*
X117212383Y-157300060D01*
X117194639Y-157319639D01*
X117175060Y-157337383D01*
X117153837Y-157353123D01*
X117131174Y-157366707D01*
X117107288Y-157378005D01*
X117082409Y-157386906D01*
X117056778Y-157393326D01*
X117030641Y-157397203D01*
X117004250Y-157398500D01*
X116040750Y-157398500D01*
X116014359Y-157397203D01*
X115988222Y-157393326D01*
X115962591Y-157386906D01*
X115937712Y-157378005D01*
X115913826Y-157366707D01*
X115891163Y-157353123D01*
X115869940Y-157337383D01*
X115850361Y-157319639D01*
X115832617Y-157300060D01*
X115816877Y-157278837D01*
X115803293Y-157256174D01*
X115791995Y-157232288D01*
X115783094Y-157207409D01*
X115776674Y-157181778D01*
X115772797Y-157155641D01*
X115771500Y-157129250D01*
X115771500Y-156590750D01*
X115772797Y-156564359D01*
X115776674Y-156538222D01*
X115783094Y-156512591D01*
X115791995Y-156487712D01*
X115803293Y-156463826D01*
X115816877Y-156441163D01*
X115832617Y-156419940D01*
X115850361Y-156400361D01*
X115869940Y-156382617D01*
X115891163Y-156366877D01*
X115913826Y-156353293D01*
X115937712Y-156341995D01*
X115962591Y-156333094D01*
X115988222Y-156326674D01*
X116014359Y-156322797D01*
X116040750Y-156321500D01*
X117004250Y-156321500D01*
X117030641Y-156322797D01*
X117030641Y-156322797D01*
G37*
D32*
X116522500Y-156860000D03*
D29*
G36*
X116840141Y-151847797D02*
G01*
X116866278Y-151851674D01*
X116891909Y-151858094D01*
X116916788Y-151866995D01*
X116940674Y-151878293D01*
X116963337Y-151891877D01*
X116984560Y-151907617D01*
X117004139Y-151925361D01*
X117021883Y-151944940D01*
X117037623Y-151966163D01*
X117051207Y-151988826D01*
X117062505Y-152012712D01*
X117071406Y-152037591D01*
X117077826Y-152063222D01*
X117081703Y-152089359D01*
X117083000Y-152115750D01*
X117083000Y-152654250D01*
X117081703Y-152680641D01*
X117077826Y-152706778D01*
X117071406Y-152732409D01*
X117062505Y-152757288D01*
X117051207Y-152781174D01*
X117037623Y-152803837D01*
X117021883Y-152825060D01*
X117004139Y-152844639D01*
X116984560Y-152862383D01*
X116963337Y-152878123D01*
X116940674Y-152891707D01*
X116916788Y-152903005D01*
X116891909Y-152911906D01*
X116866278Y-152918326D01*
X116840141Y-152922203D01*
X116813750Y-152923500D01*
X115850250Y-152923500D01*
X115823859Y-152922203D01*
X115797722Y-152918326D01*
X115772091Y-152911906D01*
X115747212Y-152903005D01*
X115723326Y-152891707D01*
X115700663Y-152878123D01*
X115679440Y-152862383D01*
X115659861Y-152844639D01*
X115642117Y-152825060D01*
X115626377Y-152803837D01*
X115612793Y-152781174D01*
X115601495Y-152757288D01*
X115592594Y-152732409D01*
X115586174Y-152706778D01*
X115582297Y-152680641D01*
X115581000Y-152654250D01*
X115581000Y-152115750D01*
X115582297Y-152089359D01*
X115586174Y-152063222D01*
X115592594Y-152037591D01*
X115601495Y-152012712D01*
X115612793Y-151988826D01*
X115626377Y-151966163D01*
X115642117Y-151944940D01*
X115659861Y-151925361D01*
X115679440Y-151907617D01*
X115700663Y-151891877D01*
X115723326Y-151878293D01*
X115747212Y-151866995D01*
X115772091Y-151858094D01*
X115797722Y-151851674D01*
X115823859Y-151847797D01*
X115850250Y-151846500D01*
X116813750Y-151846500D01*
X116840141Y-151847797D01*
X116840141Y-151847797D01*
G37*
D32*
X116332000Y-152385000D03*
D29*
G36*
X116840141Y-149972797D02*
G01*
X116866278Y-149976674D01*
X116891909Y-149983094D01*
X116916788Y-149991995D01*
X116940674Y-150003293D01*
X116963337Y-150016877D01*
X116984560Y-150032617D01*
X117004139Y-150050361D01*
X117021883Y-150069940D01*
X117037623Y-150091163D01*
X117051207Y-150113826D01*
X117062505Y-150137712D01*
X117071406Y-150162591D01*
X117077826Y-150188222D01*
X117081703Y-150214359D01*
X117083000Y-150240750D01*
X117083000Y-150779250D01*
X117081703Y-150805641D01*
X117077826Y-150831778D01*
X117071406Y-150857409D01*
X117062505Y-150882288D01*
X117051207Y-150906174D01*
X117037623Y-150928837D01*
X117021883Y-150950060D01*
X117004139Y-150969639D01*
X116984560Y-150987383D01*
X116963337Y-151003123D01*
X116940674Y-151016707D01*
X116916788Y-151028005D01*
X116891909Y-151036906D01*
X116866278Y-151043326D01*
X116840141Y-151047203D01*
X116813750Y-151048500D01*
X115850250Y-151048500D01*
X115823859Y-151047203D01*
X115797722Y-151043326D01*
X115772091Y-151036906D01*
X115747212Y-151028005D01*
X115723326Y-151016707D01*
X115700663Y-151003123D01*
X115679440Y-150987383D01*
X115659861Y-150969639D01*
X115642117Y-150950060D01*
X115626377Y-150928837D01*
X115612793Y-150906174D01*
X115601495Y-150882288D01*
X115592594Y-150857409D01*
X115586174Y-150831778D01*
X115582297Y-150805641D01*
X115581000Y-150779250D01*
X115581000Y-150240750D01*
X115582297Y-150214359D01*
X115586174Y-150188222D01*
X115592594Y-150162591D01*
X115601495Y-150137712D01*
X115612793Y-150113826D01*
X115626377Y-150091163D01*
X115642117Y-150069940D01*
X115659861Y-150050361D01*
X115679440Y-150032617D01*
X115700663Y-150016877D01*
X115723326Y-150003293D01*
X115747212Y-149991995D01*
X115772091Y-149983094D01*
X115797722Y-149976674D01*
X115823859Y-149972797D01*
X115850250Y-149971500D01*
X116813750Y-149971500D01*
X116840141Y-149972797D01*
X116840141Y-149972797D01*
G37*
D32*
X116332000Y-150510000D03*
D15*
X117816500Y-168084500D03*
X119316500Y-168084500D03*
D29*
G36*
X114554141Y-151847797D02*
G01*
X114580278Y-151851674D01*
X114605909Y-151858094D01*
X114630788Y-151866995D01*
X114654674Y-151878293D01*
X114677337Y-151891877D01*
X114698560Y-151907617D01*
X114718139Y-151925361D01*
X114735883Y-151944940D01*
X114751623Y-151966163D01*
X114765207Y-151988826D01*
X114776505Y-152012712D01*
X114785406Y-152037591D01*
X114791826Y-152063222D01*
X114795703Y-152089359D01*
X114797000Y-152115750D01*
X114797000Y-152654250D01*
X114795703Y-152680641D01*
X114791826Y-152706778D01*
X114785406Y-152732409D01*
X114776505Y-152757288D01*
X114765207Y-152781174D01*
X114751623Y-152803837D01*
X114735883Y-152825060D01*
X114718139Y-152844639D01*
X114698560Y-152862383D01*
X114677337Y-152878123D01*
X114654674Y-152891707D01*
X114630788Y-152903005D01*
X114605909Y-152911906D01*
X114580278Y-152918326D01*
X114554141Y-152922203D01*
X114527750Y-152923500D01*
X113564250Y-152923500D01*
X113537859Y-152922203D01*
X113511722Y-152918326D01*
X113486091Y-152911906D01*
X113461212Y-152903005D01*
X113437326Y-152891707D01*
X113414663Y-152878123D01*
X113393440Y-152862383D01*
X113373861Y-152844639D01*
X113356117Y-152825060D01*
X113340377Y-152803837D01*
X113326793Y-152781174D01*
X113315495Y-152757288D01*
X113306594Y-152732409D01*
X113300174Y-152706778D01*
X113296297Y-152680641D01*
X113295000Y-152654250D01*
X113295000Y-152115750D01*
X113296297Y-152089359D01*
X113300174Y-152063222D01*
X113306594Y-152037591D01*
X113315495Y-152012712D01*
X113326793Y-151988826D01*
X113340377Y-151966163D01*
X113356117Y-151944940D01*
X113373861Y-151925361D01*
X113393440Y-151907617D01*
X113414663Y-151891877D01*
X113437326Y-151878293D01*
X113461212Y-151866995D01*
X113486091Y-151858094D01*
X113511722Y-151851674D01*
X113537859Y-151847797D01*
X113564250Y-151846500D01*
X114527750Y-151846500D01*
X114554141Y-151847797D01*
X114554141Y-151847797D01*
G37*
D32*
X114046000Y-152385000D03*
D29*
G36*
X114554141Y-149972797D02*
G01*
X114580278Y-149976674D01*
X114605909Y-149983094D01*
X114630788Y-149991995D01*
X114654674Y-150003293D01*
X114677337Y-150016877D01*
X114698560Y-150032617D01*
X114718139Y-150050361D01*
X114735883Y-150069940D01*
X114751623Y-150091163D01*
X114765207Y-150113826D01*
X114776505Y-150137712D01*
X114785406Y-150162591D01*
X114791826Y-150188222D01*
X114795703Y-150214359D01*
X114797000Y-150240750D01*
X114797000Y-150779250D01*
X114795703Y-150805641D01*
X114791826Y-150831778D01*
X114785406Y-150857409D01*
X114776505Y-150882288D01*
X114765207Y-150906174D01*
X114751623Y-150928837D01*
X114735883Y-150950060D01*
X114718139Y-150969639D01*
X114698560Y-150987383D01*
X114677337Y-151003123D01*
X114654674Y-151016707D01*
X114630788Y-151028005D01*
X114605909Y-151036906D01*
X114580278Y-151043326D01*
X114554141Y-151047203D01*
X114527750Y-151048500D01*
X113564250Y-151048500D01*
X113537859Y-151047203D01*
X113511722Y-151043326D01*
X113486091Y-151036906D01*
X113461212Y-151028005D01*
X113437326Y-151016707D01*
X113414663Y-151003123D01*
X113393440Y-150987383D01*
X113373861Y-150969639D01*
X113356117Y-150950060D01*
X113340377Y-150928837D01*
X113326793Y-150906174D01*
X113315495Y-150882288D01*
X113306594Y-150857409D01*
X113300174Y-150831778D01*
X113296297Y-150805641D01*
X113295000Y-150779250D01*
X113295000Y-150240750D01*
X113296297Y-150214359D01*
X113300174Y-150188222D01*
X113306594Y-150162591D01*
X113315495Y-150137712D01*
X113326793Y-150113826D01*
X113340377Y-150091163D01*
X113356117Y-150069940D01*
X113373861Y-150050361D01*
X113393440Y-150032617D01*
X113414663Y-150016877D01*
X113437326Y-150003293D01*
X113461212Y-149991995D01*
X113486091Y-149983094D01*
X113511722Y-149976674D01*
X113537859Y-149972797D01*
X113564250Y-149971500D01*
X114527750Y-149971500D01*
X114554141Y-149972797D01*
X114554141Y-149972797D01*
G37*
D32*
X114046000Y-150510000D03*
D17*
X87882500Y-141414500D03*
X90422500Y-141414500D03*
D18*
X92962500Y-141414500D03*
D17*
X92962500Y-137604500D03*
X90422500Y-137604500D03*
D18*
X87882500Y-137604500D03*
M02*
